<svg width="25" height="25" viewBox="0 0 25 25" fill="none" xmlns="http://www.w3.org/2000/svg">
<g clip-path="url(#clip0)">
<path d="M19.9011 4.28104C18.3839 1.66268 15.6889 0.0630188 12.6921 0.00188599C12.5642 -0.000750733 12.4354 -0.000750733 12.3074 0.00188599C9.31067 0.0630188 6.61575 1.66268 5.09846 4.28104C3.54758 6.95741 3.50515 10.1722 4.98494 12.8808L11.1843 24.2278C11.1871 24.2328 11.1899 24.2379 11.1927 24.2429C11.4655 24.7169 11.9541 24.9999 12.4999 24.9999C13.0456 24.9999 13.5342 24.7169 13.8069 24.2429C13.8098 24.2379 13.8126 24.2328 13.8154 24.2278L20.0147 12.8808C21.4944 10.1722 21.452 6.95741 19.9011 4.28104ZM12.4998 11.3281C10.5613 11.3281 8.98416 9.75096 8.98416 7.81243C8.98416 5.87391 10.5613 4.29681 12.4998 4.29681C14.4383 4.29681 16.0154 5.87391 16.0154 7.81243C16.0154 9.75096 14.4384 11.3281 12.4998 11.3281Z" fill="#282828"/>
</g>
<defs>
<clipPath id="clip0">
<rect width="25" height="25" fill="white"/>
</clipPath>
</defs>
</svg>
