<svg width="30" height="20" viewBox="0 0 30 20" fill="none" xmlns="http://www.w3.org/2000/svg">
<path d="M11.7854 4.30484V0.714097C11.7852 0.31959 11.3054 -0.000125522 10.7136 3.69697e-08C10.4102 4.189e-05 10.121 0.0859244 9.91785 0.236219L0.274962 7.37916C-0.0776714 7.64099 -0.0917969 8.03499 0.241751 8.30775L9.8847 16.1649C10.2594 16.4703 10.9344 16.5153 11.3924 16.2655C11.6405 16.1302 11.7847 15.9279 11.7854 15.7142V12.1549C20.2498 12.3385 25.532 14.7507 27.9128 19.5121C28.0588 19.8034 28.4678 19.9999 28.9285 20C28.9862 20.0001 29.044 19.997 29.101 19.9907C29.6193 19.9343 29.9999 19.6358 29.9999 19.2857C29.9999 10.8742 22.4045 4.69483 11.7854 4.30484Z" fill="#7A7A7A"/>
</svg>
