<svg width="50" height="50" viewBox="0 0 50 50" fill="none" xmlns="http://www.w3.org/2000/svg">
<path d="M25 17.7083H7.2917C3.26455 17.7083 0 20.9729 0 25C0 29.027 3.26455 32.2917 7.2917 32.2917H25C25.5753 32.2917 26.0417 31.8253 26.0417 31.25V18.75C26.0417 18.1747 25.5753 17.7083 25 17.7083Z" fill="#909090"/>
<path d="M36.4583 38.5417C43.9372 38.5417 50 32.4788 50 25C50 17.5211 43.9372 11.4583 36.4583 11.4583C28.9795 11.4583 22.9166 17.5211 22.9166 25C22.9166 32.4788 28.9795 38.5417 36.4583 38.5417Z" fill="#FFDA00"/>
<path d="M36.4583 32.2917C40.4854 32.2917 43.75 29.0271 43.75 25C43.75 20.9729 40.4854 17.7083 36.4583 17.7083C32.4312 17.7083 29.1666 20.9729 29.1666 25C29.1666 29.0271 32.4312 32.2917 36.4583 32.2917Z" fill="#F8F8F8"/>
</svg>
