<svg width="26" height="26" viewBox="0 0 26 26" fill="none" xmlns="http://www.w3.org/2000/svg">
<path d="M11.375 4.875C11.375 2.18238 9.55662 0 7.3125 0C5.06837 0 3.25 2.18238 3.25 4.875C3.25 7.20038 4.6085 9.13737 6.42362 9.62488L4.89125 23.2879C4.87987 23.3773 4.875 23.4699 4.875 23.5625C4.875 24.908 5.967 26 7.3125 26C8.658 26 9.75 24.908 9.75 23.5625C9.75 23.4845 9.74675 23.4065 9.73863 23.3301L8.43538 9.53712C10.1286 8.9505 11.375 7.09637 11.375 4.875Z" fill="url(#paint0_linear)"/>
<path d="M21.9375 0C21.489 0 21.125 0.364 21.125 0.8125V4.875C21.125 5.3235 20.761 5.6875 20.3125 5.6875C19.864 5.6875 19.5 5.3235 19.5 4.875V0.8125C19.5 0.364 19.136 0 18.6875 0C18.239 0 17.875 0.364 17.875 0.8125V4.875C17.875 5.3235 17.511 5.6875 17.0625 5.6875C16.614 5.6875 16.25 5.3235 16.25 4.875V0.8125C16.25 0.364 15.886 0 15.4375 0C14.989 0 14.625 0.364 14.625 0.8125V5.6875C14.625 7.61963 15.9835 9.2365 17.7954 9.64437L16.2646 23.2879C16.2549 23.3773 16.25 23.4699 16.25 23.5625C16.25 24.908 17.342 26 18.6875 26C20.033 26 21.125 24.908 21.125 23.5625C21.125 23.4845 21.1217 23.4065 21.1136 23.3301L19.8136 9.57125C21.5036 9.07887 22.75 7.5335 22.75 5.6875V0.8125C22.75 0.364 22.386 0 21.9375 0Z" fill="url(#paint1_linear)"/>
<defs>
<linearGradient id="paint0_linear" x1="3.25" y1="2.45283" x2="12.4765" y2="2.71038" gradientUnits="userSpaceOnUse">
<stop stop-color="white"/>
<stop offset="1" stop-color="white"/>
</linearGradient>
<linearGradient id="paint1_linear" x1="14.625" y1="2.45283" x2="23.8515" y2="2.71038" gradientUnits="userSpaceOnUse">
<stop stop-color="white"/>
<stop offset="1" stop-color="white"/>
</linearGradient>
</defs>
</svg>
