<svg width="25" height="25" viewBox="0 0 25 25" fill="none" xmlns="http://www.w3.org/2000/svg">
<path d="M24.9814 5.3858C24.9814 5.35724 25.0011 5.32943 24.9998 5.30119L17.3706 12.6523L24.9906 19.7685C24.9951 19.7177 24.9814 19.6664 24.9814 19.6145V5.3858Z" fill="#F8F8F8"/>
<path d="M16.2062 13.7835L13.0918 16.78C12.9342 16.9316 12.7307 17.0077 12.527 17.0077C12.3276 17.0077 12.1282 16.9349 11.9717 16.789L8.86569 13.8947L1.19592 21.2875C1.38242 21.3546 1.58259 21.4066 1.79222 21.4066H23.2619C23.5732 21.4066 23.8651 21.3118 24.119 21.1703L16.2062 13.7835Z" fill="#F8F8F8"/>
<path d="M12.5181 15.0712L24.1612 3.85547C23.8976 3.69874 23.5908 3.5936 23.2619 3.5936H1.79224C1.36396 3.5936 0.971537 3.75989 0.665894 4.0135L12.5181 15.0712Z" fill="#F8F8F8"/>
<path d="M0 5.65901V19.6143C0 19.7746 0.0368206 19.929 0.0767911 20.0766L7.65141 12.7824L0 5.65901Z" fill="#F8F8F8"/>
</svg>
