<svg width="26" height="26" viewBox="0 0 26 26" fill="none" xmlns="http://www.w3.org/2000/svg">
<g clip-path="url(#clip0)">
<path d="M25.6743 12.6956C26.1456 12.1772 26.1001 11.3828 25.5727 10.9215L13.9529 0.754194C13.4255 0.292967 12.5799 0.302629 12.0636 0.775975L0.404374 11.4636C-0.111942 11.937 -0.137283 12.7304 0.348267 13.2351L0.640581 13.5396C1.12554 14.0443 1.90942 14.1044 2.39031 13.6736L3.26166 12.8932V24.3173C3.26166 25.0182 3.82959 25.5856 4.52999 25.5856H9.07479C9.77519 25.5856 10.3431 25.0182 10.3431 24.3173V16.3251H16.1401V24.3173C16.13 25.0177 16.6311 25.5851 17.3315 25.5851H22.1479C22.8483 25.5851 23.4162 25.0177 23.4162 24.3168V13.0541C23.4162 13.0541 23.6569 13.265 23.9538 13.5259C24.2502 13.7864 24.8727 13.5775 25.344 13.0587L25.6743 12.6956Z" fill="url(#paint0_linear)"/>
</g>
<defs>
<linearGradient id="paint0_linear" x1="-2.60075e-07" y1="2.78915" x2="29.2985" y2="5.49235" gradientUnits="userSpaceOnUse">
<stop stop-color="#E19428"/>
<stop offset="1" stop-color="#D36C6D"/>
</linearGradient>
<clipPath id="clip0">
<rect width="26" height="26" fill="white"/>
</clipPath>
</defs>
</svg>
