<svg width="20" height="20" viewBox="0 0 20 20" fill="none" xmlns="http://www.w3.org/2000/svg">
<path d="M16.4875 11.405C15.7168 10.6344 14.4629 10.6344 13.6924 11.405L12.5259 12.5714C12.2123 12.8851 11.7018 12.8852 11.3882 12.5714C11.0745 12.2578 11.0745 11.7473 11.3881 11.4337L13.3546 9.46727C13.7279 9.09398 13.9334 8.59766 13.9334 8.06973C13.9334 7.5418 13.7279 7.04547 13.3546 6.67223C12.584 5.90156 11.3301 5.90164 10.5595 6.67223L7.92149 9.31023C7.88516 9.28676 7.84759 9.26512 7.80887 9.24531V9.2116V7.8116V7.77793C8.22661 7.56445 8.51278 7.13027 8.51278 6.62895C8.51278 6.12762 8.22661 5.69344 7.80887 5.47996V4.09941H9.32876L9.71751 2.37043H8.44677L8.69235 0H5.75352L5.99911 2.37051H4.72837L5.11712 4.09949H6.637V5.48004C6.21926 5.69352 5.93305 6.1277 5.93305 6.62902C5.93305 7.13035 6.21926 7.56453 6.637 7.77801V7.81168V9.21168V9.24535C6.21926 9.45883 5.93305 9.89301 5.93305 10.3943C5.93305 10.5397 5.95747 10.6793 6.0018 10.8096H5.49466V11.9815H6.13653V13.5739C4.8452 14.0233 3.91841 15.2511 3.91841 16.6955V18.8281H2.93462V20H11.5113V18.8281H10.5275V16.6955C10.5275 15.2511 9.60063 14.0233 8.30934 13.5739V11.9815H8.95126V10.8096H8.44411C8.48845 10.6793 8.51282 10.5397 8.51282 10.3943C8.51282 10.3884 8.51247 10.3826 8.51239 10.3767L11.3882 7.5009C11.7019 7.18723 12.2124 7.18723 12.526 7.5009C12.6779 7.65285 12.7616 7.85488 12.7616 8.06977C12.7616 8.28465 12.6779 8.48668 12.526 8.63867L10.5595 10.6051C9.78895 11.3757 9.78895 12.6295 10.5595 13.4002C11.3301 14.1708 12.584 14.1707 13.3546 13.4002L14.5211 12.2337C14.8347 11.92 15.3452 11.92 15.6588 12.2337C15.9725 12.5474 15.9725 13.0578 15.6589 13.3715L14.9067 14.1236L14.4474 13.6643L13.6187 14.4929L14.0781 14.9523L13.2891 15.7412L14.1177 16.5698L14.9067 15.7809L15.3661 16.2402L16.1947 15.4116L15.7353 14.9522L16.4875 14.2C17.2581 13.4295 17.2581 12.1756 16.4875 11.405Z" fill="white"/>
</svg>
