<svg width="52" height="21" viewBox="0 0 52 21" fill="none" xmlns="http://www.w3.org/2000/svg">
<path d="M0.503845 0.559999H4.03184V17.576H8.75985V20H0.503845V0.559999ZM16.875 20.264C14.859 20.264 13.419 19.728 12.555 18.656C11.691 17.568 11.259 15.984 11.259 13.904V6.608C11.259 4.544 11.691 2.984 12.555 1.928C13.419 0.871999 14.859 0.343998 16.875 0.343998C18.875 0.343998 20.307 0.871999 21.171 1.928C22.035 2.984 22.467 4.544 22.467 6.608V13.904C22.467 15.968 22.027 17.544 21.147 18.632C20.283 19.72 18.859 20.264 16.875 20.264ZM16.875 17.648C17.659 17.648 18.187 17.4 18.459 16.904C18.731 16.408 18.867 15.688 18.867 14.744V5.792C18.867 4.848 18.731 4.136 18.459 3.656C18.203 3.176 17.675 2.936 16.875 2.936C16.075 2.936 15.539 3.184 15.267 3.68C14.995 4.16 14.859 4.864 14.859 5.792V14.744C14.859 15.688 14.995 16.408 15.267 16.904C15.539 17.4 16.075 17.648 16.875 17.648ZM31.1665 20.264C29.3265 20.264 27.9985 19.696 27.1825 18.56C26.3825 17.408 25.9825 15.752 25.9825 13.592V7.064C25.9825 4.84 26.3985 3.168 27.2305 2.048C28.0625 0.911999 29.4945 0.343998 31.5265 0.343998C33.4465 0.343998 34.8225 0.823998 35.6545 1.784C36.4865 2.728 36.9025 4.136 36.9025 6.008V7.016H33.5185V5.912C33.5185 5.208 33.4705 4.648 33.3745 4.232C33.2945 3.816 33.1105 3.496 32.8225 3.272C32.5505 3.048 32.1345 2.936 31.5745 2.936C30.9825 2.936 30.5425 3.08 30.2545 3.368C29.9665 3.656 29.7745 4.024 29.6785 4.472C29.5985 4.92 29.5585 5.504 29.5585 6.224V14.36C29.5585 15.464 29.7025 16.288 29.9905 16.832C30.2945 17.376 30.8545 17.648 31.6705 17.648C32.4705 17.648 33.0225 17.36 33.3265 16.784C33.6465 16.208 33.8065 15.344 33.8065 14.192V12.368H31.7185V10.136H36.9985V20H34.6945L34.4545 18.104C33.8465 19.544 32.7505 20.264 31.1665 20.264ZM46.2047 20.264C44.1887 20.264 42.7487 19.728 41.8847 18.656C41.0207 17.568 40.5887 15.984 40.5887 13.904V6.608C40.5887 4.544 41.0207 2.984 41.8847 1.928C42.7487 0.871999 44.1887 0.343998 46.2047 0.343998C48.2047 0.343998 49.6367 0.871999 50.5007 1.928C51.3647 2.984 51.7967 4.544 51.7967 6.608V13.904C51.7967 15.968 51.3567 17.544 50.4767 18.632C49.6127 19.72 48.1887 20.264 46.2047 20.264ZM46.2047 17.648C46.9887 17.648 47.5167 17.4 47.7887 16.904C48.0607 16.408 48.1967 15.688 48.1967 14.744V5.792C48.1967 4.848 48.0607 4.136 47.7887 3.656C47.5327 3.176 47.0047 2.936 46.2047 2.936C45.4047 2.936 44.8687 3.184 44.5967 3.68C44.3247 4.16 44.1887 4.864 44.1887 5.792V14.744C44.1887 15.688 44.3247 16.408 44.5967 16.904C44.8687 17.4 45.4047 17.648 46.2047 17.648Z" fill="url(#paint0_linear)"/>
<defs>
<linearGradient id="paint0_linear" x1="-1" y1="-3.07547" x2="58.9181" y2="6.24743" gradientUnits="userSpaceOnUse">
<stop stop-color="#E19428"/>
<stop offset="1" stop-color="#D36C6D"/>
</linearGradient>
</defs>
</svg>
