<svg width="50" height="50" viewBox="0 0 50 50" fill="none" xmlns="http://www.w3.org/2000/svg">
<path d="M47.701 25.0018L49.8946 19.2803C50.1352 18.6491 49.9477 17.9335 49.4197 17.5054L44.6637 13.6494L43.7013 7.59669C43.595 6.92799 43.0701 6.40615 42.4014 6.29991L36.3487 5.33747L32.4958 0.578423C32.0708 0.0503336 31.3396 -0.137154 30.7241 0.103455L24.9994 2.30018L19.278 0.10658C18.6436 -0.137154 17.9343 0.0565832 17.5062 0.581547L13.6502 5.3406L7.59751 6.30303C6.93193 6.40927 6.40696 6.93424 6.30072 7.59982L5.33829 13.6525L0.579235 17.5085C0.054271 17.9335 -0.136341 18.6491 0.104268 19.2803L2.29787 25.0018L0.104268 30.7232C-0.139466 31.3544 0.054271 32.07 0.579235 32.495L5.33829 36.3479L6.30072 42.4006C6.40696 43.0693 6.9288 43.5942 7.59751 43.7005L13.6502 44.6629L17.5062 49.4188C17.9343 49.9501 18.6499 50.1375 19.2811 49.8938L24.9994 47.7033L30.7209 49.8969C30.9022 49.9657 31.0897 50 31.2803 50C31.7396 50 32.1927 49.7969 32.4958 49.4188L36.3487 44.6629L42.4014 43.7005C43.0701 43.5942 43.595 43.0693 43.7013 42.4006L44.6637 36.3479L49.4197 32.495C49.9477 32.0669 50.1352 31.3544 49.8946 30.7232L47.701 25.0018Z" fill="url(#paint0_linear)"/>
<defs>
<linearGradient id="paint0_linear" x1="-5.00124e-07" y1="4.71699" x2="56.3709" y2="9.75199" gradientUnits="userSpaceOnUse">
<stop stop-color="#E19428"/>
<stop offset="1" stop-color="#D36C6D"/>
</linearGradient>
</defs>
</svg>
