<svg width="40" height="40" viewBox="0 0 40 40" fill="none" xmlns="http://www.w3.org/2000/svg">
<path d="M38.1627 20.0014L39.9176 15.4242C40.11 14.9193 39.9601 14.3468 39.5376 14.0043L35.7328 10.9195L34.9629 6.07735C34.8779 5.54239 34.4579 5.12492 33.923 5.03993L29.0808 4.26998L25.9985 0.462738C25.6585 0.0402669 25.0736 -0.109723 24.5811 0.082764L20.0014 1.84014L15.4242 0.0852638C14.9168 -0.109723 14.3493 0.0452666 14.0068 0.465238L10.922 4.27248L6.07987 5.04243C5.5474 5.12742 5.12743 5.54739 5.04244 6.07985L4.27249 10.922L0.46525 14.0068C0.0452784 14.3468 -0.107211 14.9193 0.0852756 15.4242L1.84016 20.0014L0.0852756 24.5786C-0.109711 25.0836 0.0452784 25.656 0.46525 25.996L4.27249 29.0783L5.04244 33.9205C5.12743 34.4554 5.5449 34.8754 6.07987 34.9604L10.922 35.7303L14.0068 39.5351C14.3493 39.96 14.9218 40.11 15.4267 39.915L20.0014 38.1627L24.5786 39.9175C24.7236 39.9725 24.8736 40 25.0261 40C25.3935 40 25.756 39.8376 25.9985 39.5351L29.0808 35.7303L33.923 34.9604C34.4579 34.8754 34.8779 34.4554 34.9629 33.9205L35.7328 29.0783L39.5376 25.996C39.9601 25.6535 40.11 25.0836 39.9176 24.5786L38.1627 20.0014Z" fill="#F44336"/>
</svg>
