<svg width="20" height="26" viewBox="0 0 20 26" fill="none" xmlns="http://www.w3.org/2000/svg">
<path d="M18.4337 14.8265C17.4319 13.8247 15.8018 13.8247 14.8001 14.8265L13.2837 16.3429C12.876 16.7507 12.2123 16.7507 11.8046 16.3429C11.3969 15.9351 11.3969 15.2715 11.8046 14.8638L14.361 12.3074C14.8463 11.8222 15.1135 11.177 15.1135 10.4906C15.1135 9.80434 14.8462 9.15911 14.361 8.67389C13.3592 7.67203 11.7291 7.67213 10.7274 8.67389L7.29794 12.1033C7.25071 12.0728 7.20186 12.0447 7.15154 12.0189V11.9751V10.1551V10.1113C7.69459 9.83379 8.06662 9.26936 8.06662 8.61763C8.06662 7.9659 7.69459 7.40147 7.15154 7.12395V5.32924H9.12739L9.63276 3.08156H7.9808L8.30006 0H4.47958L4.79884 3.08166H3.14688L3.65225 5.32934H5.6281V7.12405C5.08505 7.40157 4.71297 7.966 4.71297 8.61773C4.71297 9.26946 5.08505 9.83389 5.6281 10.1114V10.1552V11.9752V12.019C5.08505 12.2965 4.71297 12.8609 4.71297 13.5126C4.71297 13.7016 4.74471 13.883 4.80235 14.0525H4.14305V15.576H4.97749V17.6461C3.29876 18.2303 2.09393 19.8264 2.09393 21.7041V24.4766H0.815002V26H11.9647V24.4766H10.6857V21.7041C10.6857 19.8264 9.48082 18.2303 7.80215 17.6461V15.576H8.63664V14.0525H7.97734C8.03498 13.8831 8.06667 13.7016 8.06667 13.5126C8.06667 13.5049 8.06621 13.4974 8.06611 13.4897L11.8046 9.75117C12.2125 9.34339 12.8761 9.34339 13.2838 9.75117C13.4813 9.94871 13.5901 10.2113 13.5901 10.4907C13.5901 10.77 13.4813 11.0327 13.2838 11.2303L10.7274 13.7866C9.72564 14.7884 9.72564 16.4184 10.7274 17.4202C11.7292 18.422 13.3592 18.4219 14.361 17.4202L15.8774 15.9038C16.2851 15.4961 16.9488 15.496 17.3565 15.9038C17.7643 16.3116 17.7643 16.9752 17.3565 17.3829L16.3787 18.3607L15.7816 17.7635L14.7043 18.8408L15.3015 19.438L14.2758 20.4636L15.353 21.5408L16.3787 20.5151L16.9759 21.1123L18.0531 20.035L17.4559 19.4378L18.4337 18.4601C19.4355 17.4583 19.4355 15.8283 18.4337 14.8265Z" fill="#100400"/>
</svg>
