<svg width="196" height="8" viewBox="0 0 196 8" fill="none" xmlns="http://www.w3.org/2000/svg">
<path d="M1 4.00003L1.1547 4.09001L1.30941 4.17992L1.46411 4.26966L1.61882 4.35917L1.77352 4.44834L1.92823 4.53712L2.08293 4.62541L2.23764 4.71314L2.39234 4.80023L2.54705 4.8866L2.70175 4.97216L2.85646 5.05686L3.01116 5.1406L3.16587 5.22332L3.32057 5.30493L3.47528 5.38538L3.62998 5.46457L3.78469 5.54245L3.93939 5.61894L4.0941 5.69397L4.2488 5.76748L4.40351 5.83939L4.55821 5.90966L4.71292 5.9782L4.86762 6.04496L5.02233 6.10988L5.17703 6.17291L5.33174 6.23398L5.48644 6.29303L5.64115 6.35003L5.79585 6.40491L5.95056 6.45762L6.10526 6.50813L6.25997 6.55637L6.41467 6.60232L6.56938 6.64592L6.72408 6.68715L6.87879 6.72595L7.03349 6.7623L7.1882 6.79617L7.3429 6.82752L7.49761 6.85632L7.65231 6.88256L7.80702 6.9062L7.96172 6.92722L8.11643 6.94561L8.27113 6.96135L8.42584 6.97443L8.58054 6.98483L8.73525 6.99254L8.88995 6.99756L9.04466 6.99988L9.19936 6.9995L9.35407 6.99642L9.50877 6.99065L9.66348 6.98218L9.81818 6.97104L9.97289 6.95721L10.1276 6.94073L10.2823 6.9216L10.437 6.89984L10.5917 6.87547L10.7464 6.84851L10.9011 6.81899L11.0558 6.78693L11.2105 6.75237L11.3652 6.71532L11.5199 6.67584L11.6746 6.63394L11.8293 6.58968L11.9841 6.54308L12.1388 6.4942L12.2935 6.44307L12.4482 6.38975L12.6029 6.33427L12.7576 6.27669L12.9123 6.21706L13.067 6.15544L13.2217 6.09188L13.3764 6.02643L13.5311 5.95917L13.6858 5.89014L13.8405 5.8194L13.9952 5.74703L14.1499 5.67309L14.3046 5.59765L14.4593 5.52076L14.614 5.44251L14.7687 5.36296L14.9234 5.28218L15.0782 5.20025L15.2329 5.11723L15.3876 5.03322L15.5423 4.94827L15.697 4.86247L15.8517 4.77589L16.0064 4.68862L16.1611 4.60072L16.3158 4.51229L16.4705 4.42339L16.6252 4.33411L16.7799 4.24453L16.9346 4.15474L17.0893 4.0648L17.244 3.9748L17.3987 3.88483L17.5534 3.79496L17.7081 3.70528L17.8628 3.61586L18.0175 3.52678L18.1723 3.43814L18.327 3.34999L18.4817 3.26244L18.6364 3.17554L18.7911 3.08939L18.9458 3.00406L19.1005 2.91963L19.2552 2.83616L19.4099 2.75375L19.5646 2.67245L19.7193 2.59235L19.874 2.51352L20.0287 2.43603L20.1834 2.35994L20.3381 2.28533L20.4928 2.21226L20.6475 2.1408L20.8022 2.07101L20.9569 2.00296L21.1116 1.93671L21.2663 1.87231L21.4211 1.80983L21.5758 1.74932L21.7305 1.69083L21.8852 1.63443L22.0399 1.58015L22.1946 1.52805L22.3493 1.47817L22.504 1.43057L22.6587 1.38527L22.8134 1.34233L22.9681 1.30178L23.1228 1.26366L23.2775 1.22801L23.4322 1.19484L23.5869 1.1642L23.7416 1.13612L23.8963 1.11061L24.051 1.0877L24.2057 1.06741L24.3604 1.04976L24.5152 1.03476L24.6699 1.02244L24.8246 1.01279L24.9793 1.00583L25.134 1.00157L25.2887 1.00001L25.4434 1.00114L25.5981 1.00497L25.7528 1.0115L25.9075 1.02072L26.0622 1.03262L26.2169 1.04719L26.3716 1.06442L26.5263 1.08429L26.681 1.10678L26.8357 1.13188L26.9904 1.15956L27.1451 1.18979L27.2998 1.22256L27.4545 1.25782L27.6093 1.29555L27.764 1.33571L27.9187 1.37828L28.0734 1.4232L28.2281 1.47044L28.3828 1.51996L28.5375 1.57171L28.6922 1.62564L28.8469 1.68171L29.0016 1.73987L29.1563 1.80006L29.311 1.86223L29.4657 1.92633L29.6204 1.99229L29.7751 2.06006L29.9298 2.12957L30.0845 2.20077L30.2392 2.27358L30.3939 2.34795L30.5486 2.42381L30.7033 2.50109L30.8581 2.57971L31.0128 2.65961L31.1675 2.74072L31.3222 2.82296L31.4769 2.90627L31.6316 2.99055L31.7863 3.07575L31.941 3.16177L32.0957 3.24855L32.2504 3.33601L32.4051 3.42406L32.5598 3.51264L32.7145 3.60165L32.8692 3.69102L33.0239 3.78066L33.1786 3.87051L33.3333 3.96047L33.488 4.05047L33.6427 4.14042L33.7974 4.23025L33.9522 4.31986L34.1069 4.40919L34.2616 4.49816L34.4163 4.58667L34.571 4.67466L34.7257 4.76204L34.8804 4.84873L35.0351 4.93466L35.1898 5.01975L35.3445 5.10392L35.4992 5.1871L35.6539 5.2692L35.8086 5.35017L35.9633 5.42992L36.118 5.50839L36.2727 5.5855L36.4274 5.66118L36.5821 5.73536L36.7368 5.80799L36.8915 5.87898L37.0463 5.94829L37.201 6.01584L37.3557 6.08158L37.5104 6.14545L37.6651 6.20738L37.8198 6.26733L37.9745 6.32524L38.1292 6.38105L38.2839 6.43472L38.4386 6.48621L38.5933 6.53545L38.748 6.58241L38.9027 6.62705L39.0574 6.66933L39.2121 6.7092L39.3668 6.74663L39.5215 6.78159L39.6762 6.81405L39.8309 6.84398L39.9856 6.87135L40.1404 6.89613L40.2951 6.91831L40.4498 6.93786L40.6045 6.95476L40.7592 6.96901L40.9139 6.98059L41.0686 6.98948L41.2233 6.99568L41.378 6.99919L41.5327 7L41.6874 6.99811L41.8421 6.99352L41.9968 6.98624L42.1515 6.97626L42.3062 6.96362L42.4609 6.9483L42.6156 6.93033L42.7703 6.90972L42.925 6.8865L43.0797 6.86067L43.2344 6.83228L43.3892 6.80133L43.5439 6.76786L43.6986 6.73191L43.8533 6.69349L44.008 6.65265L44.1627 6.60942L44.3174 6.56385L44.4721 6.51596L44.6268 6.46582L44.7815 6.41345L44.9362 6.35891L45.0909 6.30225L45.2456 6.24352L45.4003 6.18277L45.555 6.12005L45.7097 6.05543L45.8644 5.98895L46.0191 5.92069L46.1738 5.8507L46.3285 5.77904L46.4833 5.70578L46.638 5.63099L46.7927 5.55473L46.9474 5.47707L47.1021 5.39808L47.2568 5.31783L47.4115 5.23639L47.5662 5.15385L47.7209 5.07026L47.8756 4.98571L48.0303 4.90028L48.185 4.81403L48.3397 4.72706L48.4944 4.63942L48.6491 4.55122L48.8038 4.46251L48.9585 4.37339L49.1132 4.28394L49.2679 4.19423L49.4227 4.10434L49.5774 4.01436L49.7321 3.92437L49.8868 3.83444L50.0415 3.74467L50.1962 3.65512L50.3509 3.56589L50.5056 3.47704L50.6603 3.38867L50.815 3.30084L50.9697 3.21365L51.1244 3.12716L51.2791 3.04146L51.4338 2.95662L51.5885 2.87272L51.7432 2.78984L51.8979 2.70804L52.0526 2.62741L52.2073 2.54801L52.362 2.46992L52.5167 2.3932L52.6715 2.31793L52.8262 2.24418L52.9809 2.172L53.1356 2.10147L53.2903 2.03265L53.445 1.9656L53.5997 1.90038L53.7544 1.83705L53.9091 1.77567L54.0638 1.71629L54.2185 1.65896L54.3732 1.60374L54.5279 1.55068L54.6826 1.49982L54.8373 1.45121L54.992 1.40489L55.1467 1.36091L55.3014 1.31931L55.4561 1.28012L55.6108 1.24337L55.7655 1.20911L55.9203 1.17736L56.075 1.14814L56.2297 1.1215L56.3844 1.09744L56.5391 1.076L56.6938 1.05719L56.8485 1.04103L57.0032 1.02753L57.1579 1.0167L57.3126 1.00856L57.4673 1.00311L57.622 1.00036L57.7767 1.00031L57.9314 1.00296L58.0861 1.0083L58.2408 1.01634L58.3955 1.02706L58.5502 1.04046L58.7049 1.05652L58.8596 1.07523L59.0144 1.09657L59.1691 1.12053L59.3238 1.14708L59.4785 1.17619L59.6332 1.20785L59.7879 1.24201L59.9426 1.27866L60.0973 1.31776L60.252 1.35928L60.4067 1.40317L60.5614 1.44939L60.7161 1.49792L60.8708 1.54869L61.0255 1.60167L61.1802 1.65681L61.3349 1.71405L61.4896 1.77336L61.6443 1.83467L61.799 1.89792L61.9537 1.96307L62.1085 2.03005L62.2632 2.09881L62.4179 2.16927L62.5726 2.24138L62.7273 2.31508L62.882 2.39029L63.0367 2.46695L63.1914 2.54499L63.3461 2.62434L63.5008 2.70493L63.6555 2.78668L63.8102 2.86953L63.9649 2.95339L64.1196 3.03819L64.2743 3.12386L64.429 3.21032L64.5837 3.29749L64.7384 3.38529L64.8931 3.47365L65.0479 3.56248L65.2026 3.6517L65.3573 3.74123L65.512 3.831L65.6667 3.92092L65.8214 4.01091L65.9761 4.1009L66.1308 4.19079L66.2855 4.28051L66.4402 4.36997L66.5949 4.45911L66.7496 4.54783L66.9043 4.63606L67.059 4.72371L67.2137 4.81072L67.3684 4.89699L67.5231 4.98246L67.6778 5.06704L67.8325 5.15067L67.9872 5.23325L68.142 5.31473L68.2967 5.39503L68.4514 5.47406L68.6061 5.55178L68.7608 5.62809L68.9155 5.70294L69.0702 5.77626L69.2249 5.84798L69.3796 5.91804L69.5343 5.98637L69.689 6.05292L69.8437 6.11761L69.9984 6.1804L70.1531 6.24123L70.3078 6.30004L70.4625 6.35678L70.6172 6.4114L70.7719 6.46385L70.9266 6.51409L71.0813 6.56206L71.236 6.60772L71.3908 6.65104L71.5455 6.69197L71.7002 6.73048L71.8549 6.76653L72.0096 6.8001L72.1643 6.83114L72.319 6.85964L72.4737 6.88556L72.6284 6.90888L72.7831 6.92959L72.9378 6.94766L73.0925 6.96308L73.2472 6.97583L73.4019 6.9859L73.5566 6.99329L73.7113 6.99798L73.866 6.99998L74.0207 6.99927L74.1754 6.99587L74.3301 6.98977L74.4849 6.98098L74.6396 6.9695L74.7943 6.95536L74.949 6.93855L75.1037 6.9191L75.2584 6.89703L75.4131 6.87234L75.5678 6.84507L75.7225 6.81525L75.8772 6.78288L76.0319 6.74802L76.1866 6.71068L76.3413 6.6709L76.496 6.62871L76.6507 6.58417L76.8054 6.53729L76.9601 6.48813L77.1148 6.43674L77.2695 6.38315L77.4242 6.32741L77.5789 6.26958L77.7337 6.20971L77.8884 6.14785L78.0431 6.08406L78.1978 6.01839L78.3525 5.95091L78.5072 5.88167L78.6619 5.81073L78.8166 5.73817L78.9713 5.66404L79.126 5.58842L79.2807 5.51137L79.4354 5.43295L79.5901 5.35325L79.7448 5.27233L79.8995 5.19026L80.0542 5.10712L80.2089 5.02299L80.3636 4.93793L80.5183 4.85203L80.673 4.76537L80.8277 4.67801L80.9825 4.59005L81.1372 4.50155L81.2919 4.41261L81.4466 4.32329L81.6013 4.23368L81.756 4.14386L81.9107 4.05391L82.0654 3.96392L82.2201 3.87395L82.3748 3.7841L82.5295 3.69444L82.6842 3.60506L82.8389 3.51604L82.9936 3.42744L83.1483 3.33937L83.303 3.25189L83.4577 3.16508L83.6124 3.07902L83.7671 2.9938L83.9219 2.90948L84.0766 2.82613L84.2313 2.74385L84.386 2.6627L84.5407 2.58275L84.6954 2.50407L84.8501 2.42674L85.0048 2.35083L85.1595 2.2764L85.3142 2.20353L85.4689 2.13226L85.6236 2.06269L85.7783 1.99485L85.933 1.92882L86.0877 1.86465L86.2424 1.8024L86.3971 1.74214L86.5518 1.6839L86.7065 1.62775L86.8612 1.57373L87.0159 1.5219L87.1707 1.47229L87.3254 1.42496L87.4801 1.37995L87.6348 1.3373L87.7895 1.29704L87.9442 1.25922L88.0989 1.22386L88.2536 1.191L88.4083 1.16067L88.563 1.13289L88.7177 1.1077L88.8724 1.0851L89.0271 1.06513L89.1818 1.0478L89.3365 1.03313L89.4912 1.02113L89.6459 1.01181L89.8006 1.00518L89.9553 1.00124L90.11 1L90.2647 1.00146L90.4195 1.00562L90.5742 1.01248L90.7289 1.02202L90.8836 1.03424L91.0383 1.04914L91.193 1.06668L91.3477 1.08687L91.5024 1.10968L91.6571 1.13509L91.8118 1.16308L91.9665 1.19362L92.1212 1.22669L92.2759 1.26225L92.4306 1.30028L92.5853 1.34074L92.74 1.38359L92.8947 1.42879L93.0494 1.47631L93.2042 1.5261L93.3589 1.57811L93.5136 1.63231L93.6683 1.68864L93.823 1.74704L93.9777 1.80748L94.1324 1.86988L94.2871 1.93421L94.4418 2.00039L94.5965 2.06837L94.7512 2.13809L94.9059 2.20949L95.0606 2.2825L95.2153 2.35705L95.37 2.43309L95.5247 2.51053L95.6794 2.58931L95.8341 2.66936L95.9888 2.75061L96.1435 2.83299L96.2982 2.91641L96.453 3.00081L96.6077 3.08611L96.7624 3.17223L96.9171 3.2591L97.0718 3.34663L97.2265 3.43475L97.3812 3.52338L97.5359 3.61244L97.6906 3.70185L97.8453 3.79152L98 3.88139" stroke="#F2F2F2" stroke-width="2"/>
<path d="M98 4.00003L98.1547 4.09001L98.3094 4.17992L98.4641 4.26966L98.6188 4.35917L98.7735 4.44834L98.9282 4.53712L99.0829 4.62541L99.2376 4.71314L99.3923 4.80023L99.547 4.8866L99.7018 4.97216L99.8565 5.05686L100.011 5.1406L100.166 5.22332L100.321 5.30493L100.475 5.38538L100.63 5.46457L100.785 5.54245L100.939 5.61894L101.094 5.69397L101.249 5.76748L101.404 5.83939L101.558 5.90966L101.713 5.9782L101.868 6.04496L102.022 6.10988L102.177 6.17291L102.332 6.23398L102.486 6.29303L102.641 6.35003L102.796 6.40491L102.951 6.45762L103.105 6.50813L103.26 6.55637L103.415 6.60232L103.569 6.64592L103.724 6.68715L103.879 6.72595L104.033 6.7623L104.188 6.79617L104.343 6.82752L104.498 6.85632L104.652 6.88256L104.807 6.9062L104.962 6.92722L105.116 6.94561L105.271 6.96135L105.426 6.97443L105.581 6.98483L105.735 6.99254L105.89 6.99756L106.045 6.99988L106.199 6.9995L106.354 6.99642L106.509 6.99065L106.663 6.98218L106.818 6.97104L106.973 6.95721L107.128 6.94073L107.282 6.9216L107.437 6.89984L107.592 6.87547L107.746 6.84851L107.901 6.81899L108.056 6.78693L108.211 6.75237L108.365 6.71532L108.52 6.67584L108.675 6.63394L108.829 6.58968L108.984 6.54308L109.139 6.4942L109.293 6.44307L109.448 6.38975L109.603 6.33427L109.758 6.27669L109.912 6.21706L110.067 6.15544L110.222 6.09188L110.376 6.02643L110.531 5.95917L110.686 5.89014L110.841 5.8194L110.995 5.74703L111.15 5.67309L111.305 5.59765L111.459 5.52076L111.614 5.44251L111.769 5.36296L111.923 5.28218L112.078 5.20025L112.233 5.11723L112.388 5.03322L112.542 4.94827L112.697 4.86247L112.852 4.77589L113.006 4.68862L113.161 4.60072L113.316 4.51229L113.47 4.42339L113.625 4.33411L113.78 4.24453L113.935 4.15474L114.089 4.0648L114.244 3.9748L114.399 3.88483L114.553 3.79496L114.708 3.70528L114.863 3.61586L115.018 3.52678L115.172 3.43814L115.327 3.34999L115.482 3.26244L115.636 3.17554L115.791 3.08939L115.946 3.00406L116.1 2.91963L116.255 2.83616L116.41 2.75375L116.565 2.67245L116.719 2.59235L116.874 2.51352L117.029 2.43603L117.183 2.35994L117.338 2.28533L117.493 2.21226L117.648 2.1408L117.802 2.07101L117.957 2.00296L118.112 1.93671L118.266 1.87231L118.421 1.80983L118.576 1.74932L118.73 1.69083L118.885 1.63443L119.04 1.58015L119.195 1.52805L119.349 1.47817L119.504 1.43057L119.659 1.38527L119.813 1.34233L119.968 1.30178L120.123 1.26366L120.278 1.22801L120.432 1.19484L120.587 1.1642L120.742 1.13612L120.896 1.11061L121.051 1.0877L121.206 1.06741L121.36 1.04976L121.515 1.03476L121.67 1.02244L121.825 1.01279L121.979 1.00583L122.134 1.00157L122.289 1.00001L122.443 1.00114L122.598 1.00497L122.753 1.0115L122.907 1.02072L123.062 1.03262L123.217 1.04719L123.372 1.06442L123.526 1.08429L123.681 1.10678L123.836 1.13188L123.99 1.15956L124.145 1.18979L124.3 1.22256L124.455 1.25782L124.609 1.29555L124.764 1.33571L124.919 1.37828L125.073 1.4232L125.228 1.47044L125.383 1.51996L125.537 1.57171L125.692 1.62564L125.847 1.68171L126.002 1.73987L126.156 1.80006L126.311 1.86223L126.466 1.92633L126.62 1.99229L126.775 2.06006L126.93 2.12957L127.085 2.20077L127.239 2.27358L127.394 2.34795L127.549 2.42381L127.703 2.50109L127.858 2.57971L128.013 2.65961L128.167 2.74072L128.322 2.82296L128.477 2.90627L128.632 2.99055L128.786 3.07575L128.941 3.16177L129.096 3.24855L129.25 3.33601L129.405 3.42406L129.56 3.51264L129.715 3.60165L129.869 3.69102L130.024 3.78066L130.179 3.87051L130.333 3.96047L130.488 4.05047L130.643 4.14042L130.797 4.23025L130.952 4.31986L131.107 4.40919L131.262 4.49816L131.416 4.58667L131.571 4.67466L131.726 4.76204L131.88 4.84873L132.035 4.93466L132.19 5.01975L132.345 5.10392L132.499 5.1871L132.654 5.2692L132.809 5.35017L132.963 5.42992L133.118 5.50839L133.273 5.5855L133.427 5.66118L133.582 5.73536L133.737 5.80799L133.892 5.87898L134.046 5.94829L134.201 6.01584L134.356 6.08158L134.51 6.14545L134.665 6.20738L134.82 6.26733L134.974 6.32524L135.129 6.38105L135.284 6.43472L135.439 6.48621L135.593 6.53545L135.748 6.58241L135.903 6.62705L136.057 6.66933L136.212 6.7092L136.367 6.74663L136.522 6.78159L136.676 6.81405L136.831 6.84398L136.986 6.87135L137.14 6.89613L137.295 6.91831L137.45 6.93786L137.604 6.95476L137.759 6.96901L137.914 6.98059L138.069 6.98948L138.223 6.99568L138.378 6.99919L138.533 7L138.687 6.99811L138.842 6.99352L138.997 6.98624L139.152 6.97626L139.306 6.96362L139.461 6.9483L139.616 6.93033L139.77 6.90972L139.925 6.8865L140.08 6.86067L140.234 6.83228L140.389 6.80133L140.544 6.76786L140.699 6.73191L140.853 6.69349L141.008 6.65265L141.163 6.60942L141.317 6.56385L141.472 6.51596L141.627 6.46582L141.782 6.41345L141.936 6.35891L142.091 6.30225L142.246 6.24352L142.4 6.18277L142.555 6.12005L142.71 6.05543L142.864 5.98895L143.019 5.92069L143.174 5.8507L143.329 5.77904L143.483 5.70578L143.638 5.63099L143.793 5.55473L143.947 5.47707L144.102 5.39808L144.257 5.31783L144.411 5.23639L144.566 5.15385L144.721 5.07026L144.876 4.98571L145.03 4.90028L145.185 4.81403L145.34 4.72706L145.494 4.63942L145.649 4.55122L145.804 4.46251L145.959 4.37339L146.113 4.28394L146.268 4.19423L146.423 4.10434L146.577 4.01436L146.732 3.92437L146.887 3.83444L147.041 3.74467L147.196 3.65512L147.351 3.56589L147.506 3.47704L147.66 3.38867L147.815 3.30084L147.97 3.21365L148.124 3.12716L148.279 3.04146L148.434 2.95662L148.589 2.87272L148.743 2.78984L148.898 2.70804L149.053 2.62741L149.207 2.54801L149.362 2.46992L149.517 2.3932L149.671 2.31793L149.826 2.24418L149.981 2.172L150.136 2.10147L150.29 2.03265L150.445 1.9656L150.6 1.90038L150.754 1.83705L150.909 1.77567L151.064 1.71629L151.219 1.65896L151.373 1.60374L151.528 1.55068L151.683 1.49982L151.837 1.45121L151.992 1.40489L152.147 1.36091L152.301 1.31931L152.456 1.28012L152.611 1.24337L152.766 1.20911L152.92 1.17736L153.075 1.14814L153.23 1.1215L153.384 1.09744L153.539 1.076L153.694 1.05719L153.848 1.04103L154.003 1.02753L154.158 1.0167L154.313 1.00856L154.467 1.00311L154.622 1.00036L154.777 1.00031L154.931 1.00296L155.086 1.0083L155.241 1.01634L155.396 1.02706L155.55 1.04046L155.705 1.05652L155.86 1.07523L156.014 1.09657L156.169 1.12053L156.324 1.14708L156.478 1.17619L156.633 1.20785L156.788 1.24201L156.943 1.27866L157.097 1.31776L157.252 1.35928L157.407 1.40317L157.561 1.44939L157.716 1.49792L157.871 1.54869L158.026 1.60167L158.18 1.65681L158.335 1.71405L158.49 1.77336L158.644 1.83467L158.799 1.89792L158.954 1.96307L159.108 2.03005L159.263 2.09881L159.418 2.16927L159.573 2.24138L159.727 2.31508L159.882 2.39029L160.037 2.46695L160.191 2.54499L160.346 2.62434L160.501 2.70493L160.656 2.78668L160.81 2.86953L160.965 2.95339L161.12 3.03819L161.274 3.12386L161.429 3.21032L161.584 3.29749L161.738 3.38529L161.893 3.47365L162.048 3.56248L162.203 3.6517L162.357 3.74123L162.512 3.831L162.667 3.92092L162.821 4.01091L162.976 4.1009L163.131 4.19079L163.285 4.28051L163.44 4.36997L163.595 4.45911L163.75 4.54783L163.904 4.63606L164.059 4.72371L164.214 4.81072L164.368 4.89699L164.523 4.98246L164.678 5.06704L164.833 5.15067L164.987 5.23325L165.142 5.31473L165.297 5.39503L165.451 5.47406L165.606 5.55178L165.761 5.62809L165.915 5.70294L166.07 5.77626L166.225 5.84798L166.38 5.91804L166.534 5.98637L166.689 6.05292L166.844 6.11761L166.998 6.1804L167.153 6.24123L167.308 6.30004L167.463 6.35678L167.617 6.4114L167.772 6.46385L167.927 6.51409L168.081 6.56206L168.236 6.60772L168.391 6.65104L168.545 6.69197L168.7 6.73048L168.855 6.76653L169.01 6.8001L169.164 6.83114L169.319 6.85964L169.474 6.88556L169.628 6.90888L169.783 6.92959L169.938 6.94766L170.093 6.96308L170.247 6.97583L170.402 6.9859L170.557 6.99329L170.711 6.99798L170.866 6.99998L171.021 6.99927L171.175 6.99587L171.33 6.98977L171.485 6.98098L171.64 6.9695L171.794 6.95536L171.949 6.93855L172.104 6.9191L172.258 6.89703L172.413 6.87234L172.568 6.84507L172.722 6.81525L172.877 6.78288L173.032 6.74802L173.187 6.71068L173.341 6.6709L173.496 6.62871L173.651 6.58417L173.805 6.53729L173.96 6.48813L174.115 6.43674L174.27 6.38315L174.424 6.32741L174.579 6.26958L174.734 6.20971L174.888 6.14785L175.043 6.08406L175.198 6.01839L175.352 5.95091L175.507 5.88167L175.662 5.81073L175.817 5.73817L175.971 5.66404L176.126 5.58842L176.281 5.51137L176.435 5.43295L176.59 5.35325L176.745 5.27233L176.9 5.19026L177.054 5.10712L177.209 5.02299L177.364 4.93793L177.518 4.85203L177.673 4.76537L177.828 4.67801L177.982 4.59005L178.137 4.50155L178.292 4.41261L178.447 4.32329L178.601 4.23368L178.756 4.14386L178.911 4.05391L179.065 3.96392L179.22 3.87395L179.375 3.7841L179.53 3.69444L179.684 3.60506L179.839 3.51604L179.994 3.42744L180.148 3.33937L180.303 3.25189L180.458 3.16508L180.612 3.07902L180.767 2.9938L180.922 2.90948L181.077 2.82613L181.231 2.74385L181.386 2.6627L181.541 2.58275L181.695 2.50407L181.85 2.42674L182.005 2.35083L182.159 2.2764L182.314 2.20353L182.469 2.13226L182.624 2.06269L182.778 1.99485L182.933 1.92882L183.088 1.86465L183.242 1.8024L183.397 1.74214L183.552 1.6839L183.707 1.62775L183.861 1.57373L184.016 1.5219L184.171 1.47229L184.325 1.42496L184.48 1.37995L184.635 1.3373L184.789 1.29704L184.944 1.25922L185.099 1.22386L185.254 1.191L185.408 1.16067L185.563 1.13289L185.718 1.1077L185.872 1.0851L186.027 1.06513L186.182 1.0478L186.337 1.03313L186.491 1.02113L186.646 1.01181L186.801 1.00518L186.955 1.00124L187.11 1L187.265 1.00146L187.419 1.00562L187.574 1.01248L187.729 1.02202L187.884 1.03424L188.038 1.04914L188.193 1.06668L188.348 1.08687L188.502 1.10968L188.657 1.13509L188.812 1.16308L188.967 1.19362L189.121 1.22669L189.276 1.26225L189.431 1.30028L189.585 1.34074L189.74 1.38359L189.895 1.42879L190.049 1.47631L190.204 1.5261L190.359 1.57811L190.514 1.63231L190.668 1.68864L190.823 1.74704L190.978 1.80748L191.132 1.86988L191.287 1.93421L191.442 2.00039L191.596 2.06837L191.751 2.13809L191.906 2.20949L192.061 2.2825L192.215 2.35705L192.37 2.43309L192.525 2.51053L192.679 2.58931L192.834 2.66936L192.989 2.75061L193.144 2.83299L193.298 2.91641L193.453 3.00081L193.608 3.08611L193.762 3.17223L193.917 3.2591L194.072 3.34663L194.226 3.43475L194.381 3.52338L194.536 3.61244L194.691 3.70185L194.845 3.79152L195 3.88139" stroke="#F2F2F2" stroke-width="2"/>
</svg>
