<svg width="26" height="26" viewBox="0 0 26 26" fill="none" xmlns="http://www.w3.org/2000/svg">
<path d="M21.4337 14.8265C20.4318 13.8247 18.8018 13.8247 17.8 14.8265L16.2837 16.3429C15.8759 16.7507 15.2123 16.7507 14.8046 16.3429C14.3968 15.9351 14.3968 15.2715 14.8045 14.8638L17.3609 12.3074C17.8462 11.8222 18.1134 11.177 18.1134 10.4906C18.1134 9.80434 17.8462 9.15911 17.3609 8.67389C16.3591 7.67203 14.7291 7.67213 13.7273 8.67389L10.2979 12.1033C10.2507 12.0728 10.2018 12.0447 10.1515 12.0189V11.9751V10.1551V10.1113C10.6945 9.83379 11.0666 9.26936 11.0666 8.61763C11.0666 7.9659 10.6945 7.40147 10.1515 7.12395V5.32924H12.1273L12.6327 3.08156H10.9807L11.3 0H7.47952L7.79878 3.08166H6.14682L6.65219 5.32934H8.62804V7.12405C8.08498 7.40157 7.71291 7.966 7.71291 8.61773C7.71291 9.26946 8.08498 9.83389 8.62804 10.1114V10.1552V11.9752V12.019C8.08498 12.2965 7.71291 12.8609 7.71291 13.5126C7.71291 13.7016 7.74465 13.883 7.80229 14.0525H7.14299V15.576H7.97743V17.6461C6.2987 18.2303 5.09387 19.8264 5.09387 21.7041V24.4766H3.81494V26H14.9646V24.4766H13.6856V21.7041C13.6856 19.8264 12.4808 18.2303 10.8021 17.6461V15.576H11.6366V14.0525H10.9773C11.0349 13.8831 11.0666 13.7016 11.0666 13.5126C11.0666 13.5049 11.0662 13.4974 11.066 13.4897L14.8046 9.75117C15.2124 9.34339 15.876 9.34339 16.2837 9.75117C16.4813 9.94871 16.59 10.2113 16.59 10.4907C16.59 10.77 16.4812 11.0327 16.2837 11.2303L13.7273 13.7866C12.7256 14.7884 12.7256 16.4184 13.7273 17.4202C14.7291 18.422 16.3592 18.4219 17.3609 17.4202L18.8773 15.9038C19.285 15.4961 19.9487 15.496 20.3564 15.9038C20.7642 16.3116 20.7642 16.9752 20.3565 17.3829L19.3787 18.3607L18.7815 17.7635L17.7043 18.8408L18.3015 19.438L17.2757 20.4636L18.353 21.5408L19.3786 20.5151L19.9758 21.1123L21.053 20.035L20.4559 19.4378L21.4337 18.4601C22.4354 17.4583 22.4354 15.8283 21.4337 14.8265Z" fill="url(#paint0_linear)"/>
<defs>
<linearGradient id="paint0_linear" x1="3.81494" y1="2.45283" x2="24.6089" y2="3.76514" gradientUnits="userSpaceOnUse">
<stop stop-color="#E19428"/>
<stop offset="1" stop-color="#D36C6D"/>
</linearGradient>
</defs>
</svg>
