<svg width="26" height="26" viewBox="0 0 26 26" fill="none" xmlns="http://www.w3.org/2000/svg">
<g clip-path="url(#clip0)">
<path d="M25.9162 6.28833C25.6412 5.3145 24.7924 4.6192 23.5667 4.6192C19.7152 4.6192 16.3225 7.22849 15.3882 10.9654L14.1081 16.0873C13.8377 17.1631 12.2374 16.9705 12.2374 15.8567V15.2825H0V17.5675C0 19.8592 0.907461 22.0492 2.55501 23.6424C4.20184 25.2342 6.40743 26.0665 8.66267 25.9914C13.3336 26.1721 17.4032 23.1022 18.6172 18.649L20.5488 11.5679C20.9312 10.1673 22.262 9.18916 23.7132 9.18916C25.28 9.18916 26.3088 7.67842 25.9162 6.28833Z" fill="url(#paint0_linear)"/>
<path d="M9.95247 10.7122H2.285C1.02502 10.7122 0 11.7372 0 12.9973V13.7589H12.2375V12.9973C12.2375 11.7372 11.2125 10.7122 9.95247 10.7122Z" fill="url(#paint1_linear)"/>
<path d="M9.65127 4.54539C11.1898 3.51966 11.1891 1.15488 9.65127 0.129704C9.29869 -0.104601 8.82785 -0.00938579 8.59502 0.340954C8.36142 0.691243 8.45664 1.16437 8.80627 1.3972C9.44205 1.82052 9.44205 2.85463 8.80627 3.27794C7.26765 4.30367 7.26841 6.56694 8.80627 7.59206C9.16219 7.82804 9.63273 7.72597 9.86252 7.38081C10.0961 7.03047 10.0016 6.55815 9.65127 6.32456C9.01549 5.90125 9.01549 4.9687 9.65127 4.54539Z" fill="url(#paint2_linear)"/>
<path d="M5.03042 4.54539C6.56899 3.51966 6.56828 1.15488 5.03042 0.129704C4.67708 -0.104601 4.207 -0.00938579 3.97417 0.340954C3.74058 0.691243 3.83579 1.16437 4.18542 1.3972C4.8212 1.82052 4.8212 2.85463 4.18542 3.27794C2.6468 4.30367 2.64756 6.56694 4.18542 7.59206C4.54129 7.82804 5.01188 7.72597 5.24167 7.38081C5.47526 7.03047 5.38076 6.55815 5.03042 6.32456C4.39464 5.90125 4.39464 4.9687 5.03042 4.54539Z" fill="url(#paint3_linear)"/>
</g>
<defs>
<linearGradient id="paint0_linear" x1="-2.60075e-07" y1="6.63616" x2="29.2033" y2="9.80839" gradientUnits="userSpaceOnUse">
<stop stop-color="white"/>
<stop offset="1" stop-color="white"/>
</linearGradient>
<linearGradient id="paint1_linear" x1="-1.2241e-07" y1="10.9997" x2="12.3213" y2="15.4203" gradientUnits="userSpaceOnUse">
<stop stop-color="white"/>
<stop offset="1" stop-color="white"/>
</linearGradient>
<linearGradient id="paint2_linear" x1="7.65259" y1="0.729378" x2="11.2303" y2="0.859891" gradientUnits="userSpaceOnUse">
<stop stop-color="white"/>
<stop offset="1" stop-color="white"/>
</linearGradient>
<linearGradient id="paint3_linear" x1="3.03174" y1="0.729378" x2="6.60948" y2="0.859891" gradientUnits="userSpaceOnUse">
<stop stop-color="white"/>
<stop offset="1" stop-color="white"/>
</linearGradient>
<clipPath id="clip0">
<rect width="26" height="26" fill="white"/>
</clipPath>
</defs>
</svg>
