<svg width="20" height="20" viewBox="0 0 20 20" fill="none" xmlns="http://www.w3.org/2000/svg">
<path d="M14.3 0H5.7C2.56668 0 0 2.56668 0 5.7V14.3C0 17.4333 2.56668 20 5.7 20H14.3C17.4333 20 20 17.4333 20 14.3V5.7C20 2.56668 17.4333 0 14.3 0ZM19.3333 14.3C19.3333 17.0667 17.0666 19.3333 14.3 19.3333H5.7C2.93332 19.3333 0.66668 17.0666 0.66668 14.3V5.7C0.66668 2.93332 2.93336 0.66668 5.7 0.66668H14.3C17.0667 0.66668 19.3333 2.93336 19.3333 5.7V14.3Z" fill="white"/>
<path d="M10.0001 4.66663C7.06678 4.66663 4.66678 7.06663 4.66678 9.99995C4.66678 12.9333 7.06678 15.3333 10.0001 15.3333C12.9334 15.3333 15.3334 12.9333 15.3334 9.99995C15.3334 7.06663 12.9334 4.66663 10.0001 4.66663ZM10.0001 14.6666C7.43342 14.6666 5.33342 12.5666 5.33342 9.99995C5.33342 7.43327 7.43342 5.33327 10.0001 5.33327C12.5668 5.33327 14.6668 7.43327 14.6668 9.99995C14.6668 12.5666 12.5668 14.6666 10.0001 14.6666Z" fill="white"/>
<path d="M9.99984 6.33325C7.96652 6.33325 6.33316 7.96657 6.33316 9.99993C6.33316 12.0333 7.96648 13.6666 9.99984 13.6666C12.0332 13.6666 13.6665 12.0333 13.6665 9.99993C13.6665 7.96657 12.0332 6.33325 9.99984 6.33325ZM9.99984 12.9999C8.33316 12.9999 6.99984 11.6666 6.99984 9.99993C6.99984 8.33325 8.33316 6.99993 9.99984 6.99993C11.6665 6.99993 12.9998 8.33325 12.9998 9.99993C12.9998 11.6666 11.6665 12.9999 9.99984 12.9999Z" fill="white"/>
<path d="M16 3C15.4333 3 15 3.43332 15 4C15 4.56667 15.4333 4.99999 16 4.99999C16.5667 4.99999 17 4.56667 17 4C17 3.43332 16.5667 3 16 3Z" fill="white"/>
</svg>
