<svg xmlns="http://www.w3.org/2000/svg" xmlns:xlink="http://www.w3.org/1999/xlink" version="1.1" width="256" height="256" viewBox="0 0 256 256" xml:space="preserve">
<desc>Created with Fabric.js 1.7.22</desc>
<defs>
</defs>
<g transform="translate(128 128) scale(0.72 0.72)" style="">
	<g style="stroke: none; stroke-width: 0; stroke-dasharray: none; stroke-linecap: butt; stroke-linejoin: miter; stroke-miterlimit: 10; fill: none; fill-rule: nonzero; opacity: 1;" transform="translate(-175.05 -175.05000000000004) scale(3.89 3.89)" >
	<path d="M 45 73.788 c -4.385 0 -7.953 -3.567 -7.953 -7.953 c 0 -1.497 0.432 -2.683 1.283 -3.524 c 1.453 -1.436 3.544 -1.414 5.754 -1.386 c 0.597 0.006 1.235 0.006 1.832 0 c 2.215 -0.028 4.302 -0.05 5.755 1.386 c 0.851 0.842 1.282 2.027 1.282 3.524 C 52.953 70.221 49.386 73.788 45 73.788 z M 41.14 65.157 c 0.003 0 -0.093 0.166 -0.093 0.678 c 0 2.18 1.773 3.953 3.953 3.953 s 3.953 -1.773 3.953 -3.953 c 0 -0.524 -0.101 -0.686 -0.102 -0.687 c -0.308 -0.255 -1.925 -0.237 -2.889 -0.224 c -0.627 0.006 -1.297 0.006 -1.924 0 C 43.073 64.911 41.458 64.894 41.14 65.157 L 41.14 65.157 z" style="stroke: none; stroke-width: 1; stroke-dasharray: none; stroke-linecap: butt; stroke-linejoin: miter; stroke-miterlimit: 10; fill: rgb(226, 25, 25); fill-rule: nonzero; opacity: 1;" transform=" matrix(1 0 0 1 0 0) " stroke-linecap="round" />
	<path d="M 32.223 79.104 c -0.05 0 -0.099 0 -0.149 0 c -1.105 -0.006 -1.996 -0.905 -1.99 -2.01 c 0.005 -1.102 0.9 -1.99 2 -1.99 c 0.05 0.007 0.095 0 0.143 0 c 5.074 0 8.646 -1.46 11.232 -4.591 c 0.38 -0.459 0.945 -0.726 1.542 -0.726 l 0 0 c 0.597 0 1.162 0.267 1.542 0.727 c 2.586 3.13 6.158 4.59 11.232 4.59 c 0.047 0 0.096 0 0.143 0 c 1.101 0 1.994 0.889 2 1.99 c 0.006 1.104 -0.886 2.004 -1.99 2.01 c -0.05 0 -0.1 0 -0.149 0 c -5.367 0 -9.571 -1.446 -12.777 -4.409 C 41.794 77.658 37.59 79.104 32.223 79.104 z" style="stroke: none; stroke-width: 1; stroke-dasharray: none; stroke-linecap: butt; stroke-linejoin: miter; stroke-miterlimit: 10; fill: rgb(226, 25, 25); fill-rule: nonzero; opacity: 1;" transform=" matrix(1 0 0 1 0 0) " stroke-linecap="round" />
	<path d="M 40.328 42.946 c -0.643 0 -1.273 -0.309 -1.66 -0.881 c -0.517 -0.765 -1.506 -1.241 -2.583 -1.241 s -2.066 0.476 -2.583 1.241 c -0.618 0.916 -1.861 1.157 -2.776 0.539 s -1.157 -1.861 -0.539 -2.776 c 1.269 -1.881 3.474 -3.003 5.898 -3.003 s 4.629 1.123 5.898 3.003 c 0.618 0.916 0.376 2.159 -0.539 2.776 C 41.102 42.835 40.712 42.946 40.328 42.946 z" style="stroke: none; stroke-width: 1; stroke-dasharray: none; stroke-linecap: butt; stroke-linejoin: miter; stroke-miterlimit: 10; fill: rgb(226, 25, 25); fill-rule: nonzero; opacity: 1;" transform=" matrix(1 0 0 1 0 0) " stroke-linecap="round" />
	<path d="M 58.157 42.946 c -0.643 0 -1.272 -0.308 -1.659 -0.88 c -0.518 -0.766 -1.507 -1.242 -2.583 -1.242 s -2.066 0.476 -2.584 1.242 c -0.618 0.915 -1.859 1.157 -2.777 0.538 c -0.915 -0.619 -1.155 -1.862 -0.537 -2.777 c 1.271 -1.88 3.476 -3.002 5.898 -3.002 s 4.627 1.123 5.897 3.002 c 0.618 0.915 0.378 2.158 -0.537 2.777 C 58.932 42.835 58.542 42.946 58.157 42.946 z" style="stroke: none; stroke-width: 1; stroke-dasharray: none; stroke-linecap: butt; stroke-linejoin: miter; stroke-miterlimit: 10; fill: rgb(226, 25, 25); fill-rule: nonzero; opacity: 1;" transform=" matrix(1 0 0 1 0 0) " stroke-linecap="round" />
	<path d="M 16.913 72.666 c -4.679 0 -6.033 -5.778 -7.466 -11.896 c -0.888 -3.79 -1.806 -7.709 -3.424 -10.544 c -0.858 -1.504 -1.658 -2.734 -2.364 -3.819 C 1.535 43.142 0 40.783 0 35.825 C 0 24.758 9.78 6.448 20.926 6.448 c 3.27 0 5.034 1.498 6.451 2.702 c 1.484 1.261 2.379 2.023 5.139 1.332 c 0.477 -0.122 0.938 -0.243 1.385 -0.361 c 3.2 -0.844 5.727 -1.51 11.099 -1.51 c 1.104 0 2 0.896 2 2 s -0.896 2 -2 2 c -4.854 0 -7.046 0.578 -10.08 1.377 c -0.456 0.121 -0.928 0.245 -1.425 0.372 c -4.759 1.19 -6.949 -0.668 -8.708 -2.161 c -1.197 -1.016 -2.061 -1.75 -3.862 -1.75 C 13.079 10.448 4 25.805 4 35.825 c 0 3.771 1.006 5.318 3.012 8.4 c 0.736 1.131 1.57 2.413 2.486 4.018 c 1.906 3.34 2.935 7.735 3.844 11.614 c 0.871 3.718 2.063 8.809 3.571 8.809 c 0.907 0 2.26 -1.806 3.338 -6.874 c 1.036 -4.87 1.551 -11.244 2.05 -17.408 c 0.897 -11.083 1.526 -17.458 4.021 -19.571 c 0.843 -0.713 2.105 -0.609 2.819 0.234 c 0.714 0.843 0.609 2.105 -0.234 2.819 c -1.36 1.279 -2.088 10.273 -2.619 16.84 C 25.125 59.085 24.025 72.666 16.913 72.666 z" style="stroke: none; stroke-width: 1; stroke-dasharray: none; stroke-linecap: butt; stroke-linejoin: miter; stroke-miterlimit: 10; fill: rgb(226, 25, 25); fill-rule: nonzero; opacity: 1;" transform=" matrix(1 0 0 1 0 0) " stroke-linecap="round" />
	<path d="M 73.087 72.666 c -7.112 0 -8.211 -13.581 -9.374 -27.958 c -0.531 -6.568 -1.259 -15.562 -2.623 -16.845 c -0.844 -0.714 -0.946 -1.974 -0.232 -2.817 c 0.714 -0.842 1.978 -0.947 2.82 -0.232 c 2.496 2.114 3.125 8.487 4.021 19.571 c 0.499 6.164 1.015 12.538 2.051 17.407 c 1.078 5.068 2.431 6.874 3.337 6.874 c 1.509 0 2.701 -5.092 3.572 -8.81 c 0.908 -3.878 1.938 -8.273 3.844 -11.613 c 0.916 -1.605 1.75 -2.887 2.485 -4.017 C 84.993 41.144 86 39.596 86 35.825 c 0 -10.02 -9.078 -25.377 -16.926 -25.377 c -1.801 0 -2.665 0.734 -3.862 1.75 c -1.758 1.494 -3.944 3.35 -8.698 2.164 c -0.506 -0.129 -0.978 -0.253 -1.434 -0.374 c -3.034 -0.8 -5.227 -1.378 -10.08 -1.378 c -1.104 0 -2 -0.896 -2 -2 s 0.896 -2 2 -2 c 5.372 0 7.899 0.667 11.1 1.51 c 0.446 0.118 0.907 0.239 1.394 0.363 c 2.746 0.685 3.645 -0.074 5.13 -1.333 c 1.417 -1.204 3.181 -2.702 6.451 -2.702 C 80.22 6.448 90 24.758 90 35.825 c 0 4.958 -1.535 7.317 -3.659 10.582 c -0.705 1.085 -1.505 2.314 -2.363 3.818 c -1.618 2.835 -2.536 6.754 -3.424 10.543 C 79.12 66.887 77.767 72.666 73.087 72.666 z" style="stroke: none; stroke-width: 1; stroke-dasharray: none; stroke-linecap: butt; stroke-linejoin: miter; stroke-miterlimit: 10; fill: rgb(226, 25, 25); fill-rule: nonzero; opacity: 1;" transform=" matrix(1 0 0 1 0 0) " stroke-linecap="round" />
	<path d="M 45 83.552 c -7.555 0 -13.93 -3.186 -17.492 -8.741 c -2.311 -3.406 -2.831 -6.32 -3.289 -8.892 c -0.453 -2.538 -0.811 -4.544 -2.775 -6.901 c -0.708 -0.849 -0.593 -2.109 0.256 -2.816 c 0.847 -0.707 2.109 -0.593 2.816 0.256 c 2.644 3.172 3.15 6.013 3.641 8.76 c 0.426 2.39 0.828 4.646 2.69 7.393 c 2.881 4.492 7.898 6.942 14.153 6.942 c 6.256 0 11.271 -2.45 14.125 -6.899 c 1.891 -2.788 2.293 -5.046 2.719 -7.435 c 0.489 -2.748 0.996 -5.589 3.641 -8.762 c 0.707 -0.848 1.968 -0.964 2.816 -0.256 c 0.849 0.707 0.963 1.968 0.256 2.816 c -1.965 2.358 -2.322 4.363 -2.775 6.902 c -0.458 2.571 -0.978 5.485 -3.317 8.936 C 58.931 80.366 52.555 83.552 45 83.552 z" style="stroke: none; stroke-width: 1; stroke-dasharray: none; stroke-linecap: butt; stroke-linejoin: miter; stroke-miterlimit: 10; fill: rgb(226, 25, 25); fill-rule: nonzero; opacity: 1;" transform=" matrix(1 0 0 1 0 0) " stroke-linecap="round" />
</g>
</g>
</svg>