<svg width="20" height="20" viewBox="0 0 20 20" fill="none" xmlns="http://www.w3.org/2000/svg">
<path d="M18.3333 0H1.66668C0.73332 0 0 0.73332 0 1.66668V18.3334C0 19.2667 0.73332 20 1.66668 20H9.33336H13.3334H18.3334C19.2667 20 20 19.2667 20 18.3333V1.66668C20 0.73332 19.2667 0 18.3333 0ZM10 19.3333V12.6667H7.33332V10H10V7.66668C10 5.76668 11.4667 4.16668 13.3333 4H16.3333V6.66668H13.6666C13.1 6.66668 12.6666 7.1 12.6666 7.66668V10H16V12.6667H12.6667V19.3334L10 19.3333ZM19.3333 18.3333C19.3333 18.9 18.9 19.3333 18.3333 19.3333H13.3333V13.3333H16.6666V9.33332H13.3333V7.66664C13.3333 7.46664 13.4666 7.33332 13.6666 7.33332H17V3.33332H13.3C11.0667 3.53332 9.33332 5.43332 9.33332 7.66664V9.33332H6.66664V13.3333H9.33332V19.3333H1.66668C1.1 19.3333 0.66668 18.9 0.66668 18.3333V1.66668C0.66668 1.1 1.1 0.66668 1.66668 0.66668H18.3334C18.9 0.66668 19.3334 1.1 19.3334 1.66668L19.3333 18.3333Z" fill="#3E3939"/>
</svg>
