<svg width="55" height="54" viewBox="0 0 55 54" fill="none" xmlns="http://www.w3.org/2000/svg">
<path d="M2.17185 21.0707L8.61698 30.0556C9.32637 31.045 10.3403 31.7784 11.5093 32.1479L40.3951 41.2822C40.7533 41.3954 41.1314 41.4374 41.5077 41.4056C41.884 41.3738 42.2512 41.2689 42.5883 41.0968C42.9254 40.9248 43.2258 40.6891 43.4724 40.403C43.7189 40.117 43.9068 39.7863 44.0253 39.4298L48.5372 25.8562C48.6558 25.4997 48.7026 25.1244 48.675 24.7517C48.6474 24.379 48.5459 24.0161 48.3764 23.684C48.2069 23.3518 47.9727 23.0568 47.6871 22.8157C47.4015 22.5746 47.0701 22.3923 46.7119 22.279L17.811 13.1421C16.6507 12.7753 15.3983 12.7862 14.2357 13.1733L8.85209 14.964L3.63442 16.7012C3.20595 16.8437 2.81608 17.0837 2.49627 17.4019C2.17646 17.72 1.93567 18.1073 1.79333 18.5325C1.65099 18.9578 1.61109 19.409 1.67684 19.8499C1.74259 20.2908 1.91215 20.709 2.17185 21.0707ZM8.77028 18.5333C9.2623 18.685 9.68146 19.0064 9.9523 19.4398C10.2232 19.8732 10.3279 20.3901 10.2477 20.8973C10.1675 21.4046 9.90763 21.869 9.51484 22.207C9.12205 22.5449 8.62215 22.7342 8.10512 22.7407C7.5881 22.7472 7.0879 22.5706 6.69456 22.2426C6.30122 21.9146 6.04058 21.4567 5.95954 20.9515C5.87851 20.4462 5.98241 19.9267 6.25253 19.4865C6.52266 19.0463 6.94127 18.7143 7.43303 18.5502C7.86739 18.4041 8.3357 18.3982 8.77028 18.5333Z" fill="#B83030"/>
</svg>
