<svg width="9" height="15" viewBox="0 0 9 15" fill="none" xmlns="http://www.w3.org/2000/svg">
<path d="M0.242161 6.9147L6.99806 0.239632C7.15432 0.0851212 7.3629 -1.94438e-08 7.58532 0C7.80773 1.94438e-08 8.01631 0.0851213 8.17257 0.239632L8.6701 0.731092C8.99384 1.05133 8.99384 1.57182 8.6701 1.89157L2.997 7.49689L8.67639 13.1084C8.83264 13.2629 8.91892 13.4689 8.91892 13.6885C8.91892 13.9084 8.83264 14.1144 8.67639 14.269L8.17886 14.7604C8.02248 14.9149 7.81402 15 7.59161 15C7.3692 15 7.16061 14.9149 7.00435 14.7604L0.242161 8.0792C0.085535 7.9242 -0.000491605 7.71725 2.11338e-06 7.49726C-0.000491566 7.2764 0.0855351 7.06958 0.242161 6.9147Z" fill="white"/>
</svg>
