<svg width="1190" height="100" viewBox="0 0 1190 100" fill="none" xmlns="http://www.w3.org/2000/svg">
<g filter="url(#filter0_f)">
<path d="M342.549 29.6119L365.16 52.231C367.77 54.8421 366.037 59.3074 362.35 59.4781C247.289 64.8012 132.249 74.101 17.2238 87.3712C13.1755 87.8384 10.81 82.9378 13.689 80.0545L35.7235 58.0118C37.7894 55.9452 40.4735 54.6024 43.3681 54.1972C139.236 40.7141 233.285 30.7318 328.278 24.251C333.585 23.8892 338.788 25.8492 342.549 29.6119Z" fill="white"/>
<path opacity="0.5" d="M464.575 49.5567L461.962 52.171C459.528 54.6058 456.259 56.0102 452.82 56.1093C432.757 56.674 412.691 57.3612 392.627 58.1693C387.48 58.3766 382.481 56.428 378.838 52.7847L355.628 29.5659C353.038 26.9744 354.723 22.54 358.379 22.3197C378.289 21.1197 398.253 20.0723 418.295 19.1771C421.657 19.0255 424.839 17.6271 427.22 15.2483L428.751 13.7169C431.04 11.4277 434.757 11.4277 437.049 13.7169L464.575 41.2567C466.867 43.5488 466.867 47.2675 464.575 49.5567Z" fill="white"/>
<path opacity="0.5" d="M834.565 29.6814L811.365 52.8892C807.721 56.5347 802.718 58.483 797.569 58.2734C777.461 57.4546 757.352 56.756 737.244 56.1774C733.809 56.0815 730.54 54.6738 728.112 52.2422L725.579 49.7083C723.291 47.4192 723.291 43.7004 725.582 41.4081L753.094 13.8834C755.385 11.5942 759.102 11.5942 761.391 13.8834L762.835 15.3281C765.213 17.704 768.396 19.1056 771.754 19.2572C791.845 20.1634 811.858 21.2222 831.816 22.4355C835.471 22.6577 837.155 27.0905 834.565 29.6814Z" fill="white"/>
<path d="M1173.04 87.6616C1057.95 74.337 942.887 64.9831 827.835 59.5998C824.148 59.4273 822.417 54.9635 825.026 52.3527L847.626 29.7447C851.389 25.9798 856.596 24.0198 861.906 24.3845C956.925 30.9105 1051 40.9409 1146.89 54.475C1149.78 54.8833 1152.46 56.2261 1154.53 58.2896L1176.57 80.3414C1179.46 83.2251 1177.09 88.1285 1173.04 87.6616Z" fill="white"/>
</g>
<path d="M342.549 29.6129L365.16 52.2319C367.77 54.843 366.037 59.3084 362.35 59.479C247.289 64.8022 132.249 74.102 17.2238 87.3722C13.1755 87.8394 10.81 82.9388 13.689 80.0554L35.7235 58.0128C37.7894 55.9461 40.4735 54.6034 43.3681 54.1982C139.236 40.715 233.285 30.7328 328.278 24.252C333.585 23.8902 338.788 25.8502 342.549 29.6129Z" fill="white"/>
<path opacity="0.5" d="M464.575 49.5577L461.962 52.1719C459.528 54.6067 456.259 56.0112 452.82 56.1102C432.757 56.6749 412.691 57.3622 392.627 58.1703C387.48 58.3776 382.481 56.429 378.838 52.7857L355.628 29.5668C353.038 26.9754 354.723 22.541 358.379 22.3207C378.289 21.1207 398.253 20.0733 418.295 19.1781C421.657 19.0265 424.839 17.6281 427.22 15.2493L428.751 13.7179C431.04 11.4287 434.757 11.4287 437.049 13.7179L464.575 41.2577C466.867 43.5498 466.867 47.2685 464.575 49.5577Z" fill="white"/>
<path opacity="0.5" d="M834.565 29.6824L811.365 52.8901C807.721 56.5357 802.718 58.484 797.569 58.2744C777.461 57.4555 757.352 56.757 737.244 56.1784C733.809 56.0825 730.54 54.6748 728.112 52.2432L725.579 49.7093C723.291 47.4201 723.291 43.7014 725.582 41.4091L753.094 13.8844C755.385 11.5952 759.102 11.5952 761.391 13.8844L762.835 15.329C765.213 17.705 768.396 19.1065 771.754 19.2582C791.845 20.1644 811.858 21.2232 831.816 22.4365C835.471 22.6587 837.155 27.0915 834.565 29.6824Z" fill="white"/>
<path d="M1173.04 87.6631C1057.95 74.3385 942.887 64.9846 827.834 59.6013C824.148 59.4287 822.416 54.9649 825.026 52.3542L847.625 29.7462C851.389 25.9813 856.596 24.0213 861.905 24.3859C956.924 30.912 1051 40.9423 1146.89 54.4765C1149.78 54.8848 1152.46 56.2276 1154.53 58.2911L1176.57 80.3429C1179.46 83.2265 1177.09 88.13 1173.04 87.6631Z" fill="white"/>
<defs>
<filter id="filter0_f" x="0.417236" y="0" width="1189.43" height="99.6927" filterUnits="userSpaceOnUse" color-interpolation-filters="sRGB">
<feFlood flood-opacity="0" result="BackgroundImageFix"/>
<feBlend mode="normal" in="SourceGraphic" in2="BackgroundImageFix" result="shape"/>
<feGaussianBlur stdDeviation="6" result="effect1_foregroundBlur"/>
</filter>
</defs>
</svg>
