<svg width="20" height="20" viewBox="0 0 20 20" fill="none" xmlns="http://www.w3.org/2000/svg">
<path d="M19.3903 0.609422C18.5777 -0.203141 17.2601 -0.203141 16.449 0.609422L10 7.05923L3.55103 0.609422C2.73847 -0.203141 1.42226 -0.203141 0.609701 0.609422C-0.202862 1.42199 -0.202862 2.73819 0.609701 3.55075L7.05867 10.0003L0.609422 16.4501C-0.203141 17.2626 -0.203141 18.5788 0.609422 19.3914C1.01556 19.7976 1.54789 20.0009 2.08023 20.0009C2.61256 20.0009 3.14544 19.7978 3.55103 19.3914L10 12.9419L16.449 19.3914C16.8551 19.7976 17.3874 20.0009 17.9198 20.0009C18.4521 20.0009 18.9842 19.7978 19.3906 19.3914C20.2031 18.5788 20.2031 17.2626 19.3906 16.4501L12.9413 10.0006L19.3903 3.55103C20.2029 2.73846 20.2029 1.42199 19.3903 0.609422Z" fill="white"/>
</svg>
