<svg width="120" height="120" viewBox="0 0 120 120" fill="none" xmlns="http://www.w3.org/2000/svg">
<g filter="url(#filter0_f)">
<circle cx="60" cy="60" r="40" fill="#FFF05D"/>
</g>
<g clip-path="url(#clip0)">
<path d="M100.907 60.0002C100.907 62.9593 96.0805 65.3364 95.4512 68.1048C94.8014 70.9634 98.1027 75.1948 96.8581 77.7739C95.5931 80.3954 90.2146 80.4445 88.4163 82.6965C86.6094 84.9594 87.7515 90.2124 85.4886 92.0193C83.2366 93.8172 78.3714 91.542 75.7494 92.807C73.1703 94.051 71.9249 99.2853 69.0663 99.9351C66.2979 100.564 62.912 96.4031 59.9528 96.4031C56.9937 96.4031 53.6078 100.564 50.8394 99.9351C47.9808 99.2853 46.7354 94.051 44.1562 92.807C41.5348 91.542 36.6691 93.8172 34.4171 92.0193C32.1542 90.2124 33.2963 84.9594 31.4894 82.6965C29.6911 80.4445 24.3121 80.3958 23.0476 77.7739C21.8035 75.1948 25.1048 70.9638 24.455 68.1048C23.8261 65.3364 19 62.9593 19 60.0002C19 57.0411 23.8261 54.664 24.4554 51.8955C25.1052 49.037 21.8039 44.8056 23.0485 42.2265C24.3135 39.605 29.692 39.5558 31.4903 37.3039C33.2973 35.041 32.1551 29.788 34.418 27.9811C36.67 26.1828 41.5352 28.4584 44.1572 27.1934C46.7359 25.9489 47.9813 20.7146 50.8398 20.0648C53.6083 19.4355 56.9942 23.5972 59.9533 23.5972C62.9124 23.5972 66.2983 19.4359 69.0668 20.0653C71.9253 20.715 73.1708 25.9493 75.7499 27.1934C78.3714 28.458 83.2371 26.1832 85.4891 27.9811C87.7519 29.788 86.6098 35.041 88.4168 37.3039C90.2151 39.5558 95.5941 39.6045 96.8586 42.2265C98.1027 44.8056 94.8014 49.0365 95.4512 51.8955C96.0805 54.664 100.907 57.0411 100.907 60.0002Z" fill="#F9DF46"/>
<path d="M100.907 60.0002C100.907 62.9593 96.0805 65.3364 95.4512 68.1048C94.8014 70.9634 98.1027 75.1948 96.8581 77.7739C95.5931 80.3954 90.2146 80.4445 88.4163 82.6965C86.6094 84.9594 87.7515 90.2124 85.4886 92.0193C83.2366 93.8172 78.3714 91.542 75.7494 92.807C73.1703 94.051 71.9249 99.2853 69.0663 99.9351C66.2979 100.564 62.912 96.4031 59.9528 96.4031C56.9937 96.4031 53.6078 100.564 50.8394 99.9351C47.9808 99.2853 46.7354 94.051 44.1562 92.807C41.5348 91.542 36.6691 93.8172 34.4171 92.0193C32.1542 90.2124 33.2963 84.9594 31.4894 82.6965C29.6911 80.4445 24.3121 80.3958 23.0476 77.7739C21.8035 75.1948 25.1048 70.9638 24.455 68.1048C23.8261 65.3364 19 62.9593 19 60.0002C19 57.0411 23.8261 54.664 24.4554 51.8955C25.1052 49.037 21.8039 44.8056 23.0485 42.2265C24.3135 39.605 29.692 39.5558 31.4903 37.3039C33.2973 35.041 32.1551 29.788 34.418 27.9811C36.67 26.1828 41.5352 28.4584 44.1572 27.1934C46.7359 25.9489 47.9813 20.7146 50.8398 20.0648C53.6083 19.4355 56.9942 23.5972 59.9533 23.5972C62.9124 23.5972 66.2983 19.4359 69.0668 20.0653C71.9253 20.715 73.1708 25.9493 75.7499 27.1934C78.3714 28.458 83.2371 26.1832 85.4891 27.9811C87.7519 29.788 86.6098 35.041 88.4168 37.3039C90.2151 39.5558 95.5941 39.6045 96.8586 42.2265C98.1027 44.8056 94.8014 49.0365 95.4512 51.8955C96.0805 54.664 100.907 57.0411 100.907 60.0002Z" fill="url(#paint0_radial)"/>
<path d="M59.9534 94.6725C40.8351 94.6725 25.281 79.1184 25.281 60.0001C25.281 40.8817 40.8351 25.3276 59.9534 25.3276C79.0718 25.3276 94.6259 40.8817 94.6259 60.0001C94.6259 79.1184 79.0718 94.6725 59.9534 94.6725Z" fill="#F9E048"/>
<path d="M59.9534 26.2376C78.5698 26.2376 93.7157 41.3835 93.7157 60C93.7157 78.6165 78.5698 93.7624 59.9534 93.7624C41.3364 93.7624 26.191 78.6165 26.191 60C26.191 41.3835 41.3364 26.2376 59.9534 26.2376ZM59.9534 24.4175C40.3017 24.4175 24.3708 40.3483 24.3708 60C24.3708 79.6517 40.3017 95.5825 59.9534 95.5825C79.605 95.5825 95.5359 79.6517 95.5359 60C95.5359 40.3483 79.605 24.4175 59.9534 24.4175Z" fill="#E2C727"/>
<path d="M59.9533 91.2723C77.2246 91.2723 91.2257 77.2712 91.2257 59.9999C91.2257 42.7287 77.2246 28.7275 59.9533 28.7275C42.682 28.7275 28.6809 42.7287 28.6809 59.9999C28.6809 77.2712 42.682 91.2723 59.9533 91.2723Z" fill="url(#paint1_radial)"/>
<path d="M91.6084 60.1375L66.0627 61.0463L90.3284 69.0799L65.5671 62.7372L86.5635 77.3156L64.5988 64.2402L80.653 84.1316L63.2369 65.421L73.0548 89.0219L61.6293 66.1572L64.3599 91.5715L59.856 66.408L55.352 91.5715L58.0827 66.1572L46.6558 89.0215L56.4746 65.421L39.0576 84.1307L55.1131 64.2397L33.1481 77.3147L54.1448 62.7372L29.3835 69.0795L53.6493 61.0463L28.1035 60.1375L53.6493 59.2288L29.3835 51.1952L54.1448 57.5379L33.1485 42.9595L55.1131 56.0349L39.059 36.1435L56.4751 54.8537L46.6572 31.2532L58.0827 54.1179L55.352 28.7036L59.856 53.8671L64.3604 28.7036L61.6297 54.1179L73.0561 31.2536L63.2374 54.8541L80.6543 36.1444L64.5988 56.0354L86.5639 42.9604L65.5676 57.5379L90.3284 51.1956L66.0627 59.2288L91.6084 60.1375Z" fill="#F3B740"/>
<path d="M48.5651 74.1427L34.079 66.0357C33.244 65.5684 33.2768 64.3557 34.1354 63.9339L64.9064 48.8235C65.7714 48.399 66.7898 48.4263 67.6307 48.8968L81.9926 56.9341C82.8276 57.4014 82.7948 58.6141 81.9361 59.0359L51.0373 74.2091C50.2524 74.5945 49.3282 74.5699 48.5651 74.1427Z" fill="#FFF05D"/>
<path d="M49.865 75.1642C49.2944 75.1642 48.7302 75.0172 48.2319 74.7383L33.7458 66.6314C33.1374 66.2905 32.7707 65.6462 32.7898 64.9491C32.8084 64.2524 33.2089 63.6286 33.8345 63.321L64.6055 48.2106C65.6521 47.6968 66.9471 47.7314 67.9637 48.3007L82.326 56.338C82.9344 56.6788 83.3011 57.3231 83.282 58.0202C83.2634 58.7169 82.8629 59.3408 82.2373 59.6484L51.3389 74.8216C50.882 75.0459 50.3729 75.1642 49.865 75.1642ZM66.1986 49.2062C65.8568 49.2062 65.5142 49.2858 65.2071 49.4364L34.4361 64.5468C34.189 64.6683 34.1567 64.8945 34.154 64.9864C34.1517 65.0783 34.1717 65.3058 34.412 65.4405L48.8981 73.5475C49.4546 73.8587 50.1635 73.8783 50.7364 73.5966L81.6348 58.4234C81.8819 58.3019 81.9142 58.0758 81.9169 57.9838C81.9192 57.8919 81.8992 57.6644 81.6589 57.5297L67.2966 49.4924C66.9621 49.3049 66.5826 49.2062 66.1986 49.2062Z" fill="#8B7809"/>
<path d="M48.5651 71.5103L34.079 63.4034C33.244 62.9361 33.2768 61.7234 34.1354 61.3016L64.9064 46.1912C65.7714 45.7666 66.7898 45.7939 67.6307 46.2645L81.9926 54.3018C82.8276 54.7691 82.7948 55.9818 81.9361 56.4036L51.0373 71.5768C50.2524 71.9622 49.3282 71.9372 48.5651 71.5103Z" fill="#FFF05D"/>
<path d="M49.865 72.5315C49.2944 72.5315 48.7302 72.3845 48.2319 72.1055L33.7458 63.9991C33.137 63.6582 32.7707 63.0135 32.7898 62.3168C32.8084 61.6201 33.2089 60.9963 33.8345 60.6891L64.6055 45.5787C65.6521 45.065 66.9471 45.0996 67.9637 45.6688L82.326 53.7061C82.9344 54.047 83.3011 54.6913 83.282 55.3884C83.2634 56.0851 82.8629 56.7089 82.2373 57.0165L51.3389 72.1897C50.882 72.4132 50.3729 72.5315 49.865 72.5315ZM66.1986 46.5734C65.8568 46.5734 65.5142 46.6531 65.2071 46.8037L34.4361 61.9141C34.189 62.0356 34.1567 62.2617 34.154 62.3532C34.1517 62.4451 34.1717 62.6731 34.412 62.8073L48.8981 70.9143C49.4546 71.2255 50.1635 71.2451 50.7364 70.9634L81.6348 55.7902C81.8819 55.6687 81.9142 55.4426 81.9169 55.3506C81.9192 55.2587 81.8992 55.0312 81.6589 54.8965L67.2966 46.8592C66.9621 46.6726 66.5826 46.5734 66.1986 46.5734Z" fill="#8B7809"/>
<path d="M48.5651 68.8775L34.079 60.7706C33.244 60.3033 33.2768 59.0906 34.1354 58.6688L64.9064 43.5584C65.7714 43.1338 66.7898 43.1611 67.6307 43.6316L81.9926 51.669C82.8276 52.1363 82.7948 53.3489 81.9361 53.7708L51.0373 68.944C50.2524 69.3294 49.3282 69.3044 48.5651 68.8775Z" fill="#FFF05D"/>
<path d="M49.8648 69.8985C49.2946 69.8985 48.7304 69.7515 48.2321 69.473L33.746 61.3661C33.1376 61.0253 32.7713 60.3809 32.79 59.6843C32.8086 58.9872 33.2091 58.3633 33.8348 58.0562L64.6057 42.9458C65.6523 42.432 66.9473 42.4671 67.9639 43.0359L82.3262 51.0732C82.9346 51.4135 83.3009 52.0583 83.2822 52.755C83.2636 53.4521 82.8631 54.0759 82.2375 54.3831L51.3391 69.5563C50.8822 69.7802 50.3731 69.8985 49.8648 69.8985ZM66.1988 43.9405C65.8571 43.9405 65.514 44.0201 65.2073 44.1707L34.4363 59.2811C34.1892 59.4026 34.1569 59.6292 34.1542 59.7207C34.1519 59.8126 34.1719 60.0401 34.4122 60.1748L48.8983 68.2817C49.4562 68.5934 50.1642 68.6125 50.7366 68.3309L81.635 53.1581C81.8821 53.0366 81.9144 52.81 81.9171 52.7186C81.9194 52.6267 81.8994 52.3991 81.6591 52.2644L67.2968 44.2271C66.9623 44.0397 66.5824 43.9405 66.1988 43.9405Z" fill="#8B7809"/>
<path d="M48.5651 66.2442L34.079 58.1373C33.244 57.67 33.2768 56.4573 34.1354 56.0355L64.9064 40.9251C65.7714 40.5005 66.7898 40.5278 67.6307 40.9983L81.9926 49.0357C82.8276 49.503 82.7948 50.7156 81.9361 51.1375L51.0373 66.3107C50.2524 66.6961 49.3282 66.6711 48.5651 66.2442Z" fill="#FFF05D"/>
<path d="M49.8652 67.2655C49.2946 67.2655 48.7304 67.1185 48.2321 66.8396L33.746 58.7331C33.1376 58.3927 32.7713 57.748 32.79 57.0513C32.8086 56.3542 33.2091 55.7303 33.8348 55.4232L64.6057 40.3128C65.6514 39.799 66.946 39.8332 67.9639 40.4029L82.3262 48.4406C82.9346 48.781 83.3009 49.4258 83.2822 50.1225C83.2636 50.8196 82.8631 51.4434 82.2375 51.7506L51.3387 66.9233C50.8822 67.1472 50.3731 67.2655 49.8652 67.2655ZM66.1988 41.3079C65.8571 41.3079 65.514 41.3876 65.2073 41.5382L34.4363 56.6481C34.1892 56.7696 34.1569 56.9962 34.1542 57.0877C34.1519 57.1796 34.1719 57.4071 34.4122 57.5418L48.8983 65.6488C49.4548 65.9605 50.1637 65.98 50.7366 65.6979L81.635 50.5252C81.8821 50.4037 81.9144 50.1771 81.9171 50.0856C81.9194 49.9937 81.8994 49.7662 81.6591 49.6315L67.2968 41.5937C66.9623 41.4067 66.5824 41.3079 66.1988 41.3079Z" fill="#8B7809"/>
<path d="M48.5651 63.6114L34.079 55.5045C33.244 55.0372 33.2768 53.8245 34.1354 53.4027L64.9064 38.2923C65.7714 37.8677 66.7898 37.895 67.6307 38.3655L81.9926 46.4028C82.8276 46.8702 82.7948 48.0828 81.9361 48.5047L51.0373 63.6778C50.2524 64.0633 49.3282 64.0387 48.5651 63.6114Z" fill="#FFF05D"/>
<path d="M49.865 64.633C49.2944 64.633 48.7302 64.486 48.2319 64.2071L33.7458 56.1001C33.1374 55.7593 32.7707 55.115 32.7898 54.4179C32.8084 53.7212 33.2089 53.0973 33.8345 52.7897L64.6055 37.6793C65.6521 37.1651 66.9471 37.2006 67.9637 37.7694L82.326 45.8067C82.9348 46.1476 83.3011 46.7924 83.282 47.489C83.2634 48.1857 82.8629 48.8095 82.2373 49.1167L51.3384 64.2903C50.882 64.5147 50.3729 64.633 49.865 64.633ZM66.1986 38.6745C65.8568 38.6745 65.5142 38.7541 65.2071 38.9047L34.4361 54.0156C34.189 54.1371 34.1567 54.3633 34.154 54.4552C34.1517 54.5471 34.1717 54.7746 34.412 54.9093L48.8981 63.0162C49.4546 63.3275 50.1635 63.3475 50.7364 63.0654L81.6348 47.8922C81.8819 47.7707 81.9142 47.5445 81.9169 47.4531C81.9192 47.3611 81.8992 47.1332 81.6589 46.9985L67.297 38.9612C66.9621 38.7737 66.5826 38.6745 66.1986 38.6745Z" fill="#8B7809"/>
<path d="M70.6962 53.82L63.6254 57.4758L45.3752 47.2129L52.4461 43.5571L70.6962 53.82Z" fill="#FFF05D"/>
<path d="M63.6259 58.1585C63.5103 58.1585 63.3952 58.1294 63.2914 58.0711L45.0408 47.8082C44.8224 47.6849 44.6886 47.4519 44.6927 47.2012C44.6968 46.9505 44.8388 46.722 45.0622 46.6069L52.133 42.9512C52.3364 42.8456 52.5794 42.8501 52.781 42.9625L71.0307 53.2254C71.2491 53.3487 71.3829 53.5817 71.3788 53.8324C71.3747 54.0832 71.2327 54.3116 71.0093 54.4267L63.9389 58.082C63.8407 58.133 63.7333 58.1585 63.6259 58.1585ZM46.8127 47.2381L63.6395 56.7001L69.2588 53.7947L52.4324 44.3326L46.8127 47.2381Z" fill="#8B7809"/>
<path d="M70.6963 64.8257L63.6255 68.6971V57.4755L70.6963 53.604V64.8257Z" fill="#FFF05D"/>
<path d="M63.6259 69.3799C63.5053 69.3799 63.3852 69.3481 63.2778 69.2848C63.0703 69.1619 62.9434 68.9385 62.9434 68.6974V57.4757C62.9434 57.2263 63.0794 56.997 63.2978 56.8773L70.3682 53.0059C70.5798 52.8903 70.8364 52.8939 71.0439 53.0172C71.2514 53.1401 71.3784 53.3635 71.3784 53.6047V64.8264C71.3784 65.0757 71.2423 65.3051 71.0239 65.4247L63.9535 69.2962C63.8516 69.3517 63.7388 69.3799 63.6259 69.3799ZM64.3085 57.8802V67.5457L70.0137 64.4218V54.7559L64.3085 57.8802Z" fill="#8B7809"/>
<path d="M69.6038 80.3776C74.4518 80.3776 78.3819 79.0391 78.3819 77.388C78.3819 75.7369 74.4518 74.3984 69.6038 74.3984C64.7558 74.3984 60.8257 75.7369 60.8257 77.388C60.8257 79.0391 64.7558 80.3776 69.6038 80.3776Z" fill="#FFF05D"/>
<path d="M79.9103 77.1244C79.9103 74.8861 75.3026 73.0732 69.6187 73.0732C64.1669 73.0732 59.7062 74.7396 59.3485 76.8491C59.3331 76.9411 59.3271 79.7996 59.3271 79.7996C59.3271 82.0347 63.9348 83.8476 69.6219 83.8476C75.3058 83.8476 79.9135 82.0347 79.9135 79.7996V77.1272C79.9135 77.513 79.9103 77.5067 79.9103 77.1244ZM76.336 78.5646C74.5932 79.2526 72.1442 79.644 69.6187 79.644C67.0933 79.644 64.6443 79.2526 62.8983 78.5646C61.2165 77.9044 60.8529 77.2532 60.8529 77.1308L60.8561 77.1062C60.9753 76.4182 63.8461 74.6022 69.6192 74.6022C72.1446 74.6022 74.5936 74.9967 76.3364 75.6847C78.0182 76.345 78.3818 76.9993 78.3818 77.1249C78.3813 77.2532 78.0178 77.9044 76.336 78.5646Z" fill="#FFF05D"/>
<path d="M69.6213 84.5305C64.3001 84.5305 58.644 82.8724 58.644 79.8C58.6504 76.8846 58.6636 76.8036 58.6741 76.7385C59.1587 73.8831 64.5463 72.3906 69.6182 72.3906C74.8961 72.3906 80.5026 74.0237 80.5914 77.0516C80.5941 77.0766 80.5955 77.1021 80.5955 77.1276V79.8C80.5959 82.8724 74.9416 84.5305 69.6213 84.5305ZM60.0274 76.931C60.0183 77.2067 60.0119 78.8126 60.0096 79.8014C60.0096 81.3885 64.1204 83.1654 69.6218 83.1654C75.1214 83.1654 79.2308 81.3885 79.2308 79.8L79.2299 77.3901C79.2304 77.376 79.2304 77.3432 79.2308 77.2923C79.2276 77.229 79.2276 77.1721 79.2276 77.1248C79.2276 75.5345 75.1182 73.7562 69.6186 73.7562C64.241 73.7557 60.3391 75.3911 60.0274 76.931ZM69.6186 80.3265C67.0067 80.3265 64.4658 79.9156 62.6484 79.1993C60.8214 78.4822 60.1707 77.6604 60.1707 77.1303C60.1707 77.1016 60.1725 77.073 60.1762 77.0443C60.1775 77.0343 60.1825 76.9997 60.1843 76.9897C60.4014 75.7347 63.8865 73.9195 69.6191 73.9195C72.2278 73.9195 74.7678 74.3314 76.587 75.0494C78.4136 75.767 79.0643 76.592 79.0643 77.1244C79.0643 77.6572 78.4131 78.4822 76.5857 79.1998C74.7719 79.9156 72.2323 80.3265 69.6186 80.3265ZM61.6741 77.1153C61.9026 77.315 62.3562 77.6181 63.1475 77.9289C64.813 78.585 67.171 78.9614 69.6186 78.9614C72.0672 78.9614 74.4247 78.5855 76.0856 77.9298C76.866 77.6231 77.3174 77.325 77.5485 77.1248C77.3169 76.9246 76.866 76.6256 76.0865 76.3194C74.4197 75.6614 72.0626 75.2847 69.6186 75.2847C64.904 75.2847 62.3581 76.5274 61.6741 77.1153Z" fill="#8B7809"/>
<path d="M69.6038 76.4025C74.4518 76.4025 78.3819 75.064 78.3819 73.4129C78.3819 71.7618 74.4518 70.4233 69.6038 70.4233C64.7558 70.4233 60.8257 71.7618 60.8257 73.4129C60.8257 75.064 64.7558 76.4025 69.6038 76.4025Z" fill="#FFF05D"/>
<path d="M79.9103 73.1498C79.9103 70.9115 75.3026 69.0986 69.6187 69.0986C64.1669 69.0986 59.7062 70.765 59.3485 72.8745C59.3331 72.9664 59.3271 75.825 59.3271 75.825C59.3271 78.0601 63.9348 79.873 69.6219 79.873C75.3058 79.873 79.9135 78.0597 79.9135 75.825V73.1526C79.9135 73.5384 79.9103 73.5321 79.9103 73.1498ZM76.336 74.59C74.5932 75.278 72.1442 75.6694 69.6187 75.6694C67.0933 75.6694 64.6443 75.278 62.8983 74.59C61.2165 73.9298 60.8529 73.2786 60.8529 73.1562L60.8561 73.1316C60.9753 72.4436 63.8461 70.6276 69.6192 70.6276C72.1446 70.6276 74.5936 71.0221 76.3364 71.7101C78.0182 72.3703 78.3818 73.0247 78.3818 73.1503C78.3813 73.2786 78.0178 73.9298 76.336 74.59Z" fill="#FFF05D"/>
<path d="M69.6213 80.5559C64.3001 80.5559 58.644 78.8978 58.644 75.8254C58.6504 72.91 58.6636 72.8294 58.6741 72.7639C59.1587 69.9085 64.5463 68.416 69.6182 68.416C74.8961 68.416 80.5026 70.0487 80.5914 73.077C80.5941 73.102 80.5955 73.1275 80.5955 73.1529V75.8254C80.5959 78.8978 74.9416 80.5559 69.6213 80.5559ZM60.0274 72.9564C60.0183 73.2321 60.0119 74.8375 60.0096 75.8267C60.0096 77.4139 64.1204 79.1908 69.6218 79.1908C75.1214 79.1908 79.2308 77.4139 79.2308 75.8254L79.2299 73.4155C79.2304 73.4014 79.2304 73.3686 79.2308 73.3177C79.2276 73.2549 79.2276 73.1975 79.2276 73.1502C79.2276 71.5599 75.1182 69.7816 69.6186 69.7816C64.241 69.7811 60.3391 71.417 60.0274 72.9564ZM69.6186 76.3519C67.0063 76.3519 64.4658 75.9414 62.6484 75.2252C60.8214 74.5076 60.1707 73.6858 60.1707 73.1561C60.1707 73.1275 60.1725 73.0988 60.1762 73.0701C60.1775 73.0601 60.1825 73.0255 60.1839 73.0155C60.4014 71.7605 63.8865 69.9449 69.6191 69.9449C72.2283 69.9449 74.7678 70.3567 76.587 71.0753C78.4136 71.7924 79.0643 72.6174 79.0643 73.1502C79.0643 73.6826 78.4131 74.5076 76.5861 75.2256C74.7724 75.941 72.2328 76.3519 69.6186 76.3519ZM61.6741 73.1407C61.9026 73.3409 62.3562 73.6435 63.1475 73.9547C64.8125 74.6104 67.171 74.9867 69.6186 74.9867C72.0676 74.9867 74.4252 74.6109 76.0856 73.9552C76.866 73.6485 77.3169 73.3504 77.5485 73.1502C77.3169 72.9495 76.8655 72.6506 76.087 72.3448C74.4202 71.6868 72.0626 71.3096 69.6186 71.3096C64.904 71.31 62.3581 72.5523 61.6741 73.1407Z" fill="#8B7809"/>
<path d="M69.6038 72.4279C74.4518 72.4279 78.3819 71.0894 78.3819 69.4383C78.3819 67.7872 74.4518 66.4487 69.6038 66.4487C64.7558 66.4487 60.8257 67.7872 60.8257 69.4383C60.8257 71.0894 64.7558 72.4279 69.6038 72.4279Z" fill="#FFF05D"/>
<path d="M79.9103 69.1752C79.9103 66.9369 75.3026 65.124 69.6187 65.124C64.1669 65.124 59.7062 66.7904 59.3485 68.8999C59.3331 68.9918 59.3271 71.8504 59.3271 71.8504C59.3271 74.0855 63.9348 75.8984 69.6219 75.8984C75.3058 75.8984 79.9135 74.0851 79.9135 71.8504V69.1779C79.9135 69.5638 79.9103 69.5574 79.9103 69.1752ZM76.336 70.6154C74.5932 71.3034 72.1442 71.6948 69.6187 71.6948C67.0933 71.6948 64.6443 71.3034 62.8983 70.6154C61.2165 69.9551 60.8529 69.304 60.8529 69.1816L60.8561 69.157C60.9753 68.469 63.8461 66.6529 69.6192 66.6529C72.1446 66.6529 74.5936 67.0475 76.3364 67.7355C78.0182 68.3957 78.3818 69.0501 78.3818 69.1757C78.3813 69.3035 78.0178 69.9551 76.336 70.6154Z" fill="#FFF05D"/>
<path d="M69.6213 76.5813C64.3001 76.5813 58.644 74.9232 58.644 71.8508C58.6504 68.9353 58.6636 68.8544 58.6741 68.7893C59.1587 65.9339 64.5463 64.4414 69.6182 64.4414C74.8961 64.4414 80.5026 66.0745 80.5914 69.1023C80.5941 69.1274 80.5955 69.1529 80.5955 69.1783V71.8508C80.5959 74.9232 74.9416 76.5813 69.6213 76.5813ZM60.0274 68.9818C60.0183 69.2575 60.0119 70.8633 60.0096 71.8521C60.0096 73.4393 64.1204 75.2162 69.6218 75.2162C75.1214 75.2162 79.2308 73.4393 79.2308 71.8508L79.2299 69.4409C79.2304 69.4268 79.2304 69.394 79.2308 69.3431C79.2276 69.2798 79.2276 69.2229 79.2276 69.1756C79.2276 67.5853 75.1182 65.807 69.6186 65.807C64.241 65.8065 60.3391 67.4419 60.0274 68.9818ZM69.6186 72.3772C67.0067 72.3772 64.4658 71.9663 62.6484 71.2501C60.8214 70.533 60.1707 69.7112 60.1707 69.1811C60.1707 69.1524 60.1725 69.1237 60.1762 69.0951C60.1775 69.0851 60.1825 69.0505 60.1843 69.0405C60.4014 67.7855 63.8865 65.9703 69.6191 65.9703C72.2278 65.9703 74.7678 66.3821 76.587 67.1002C78.4136 67.8178 79.0643 68.6428 79.0643 69.1752C79.0643 69.708 78.4131 70.533 76.5857 71.2506C74.7719 71.9663 72.2323 72.3772 69.6186 72.3772ZM61.6741 69.1661C61.9026 69.3658 62.3562 69.6689 63.1475 69.9797C64.813 70.6358 67.171 71.0121 69.6186 71.0121C72.0672 71.0121 74.4247 70.6363 76.0856 69.9806C76.866 69.6739 77.3174 69.3758 77.5485 69.1756C77.3169 68.9754 76.866 68.6764 76.0865 68.3702C74.4197 67.7122 72.0626 67.3354 69.6186 67.3354C64.904 67.3354 62.3581 68.5777 61.6741 69.1661Z" fill="#8B7809"/>
<path d="M69.6038 68.4533C74.4518 68.4533 78.3819 67.1148 78.3819 65.4637C78.3819 63.8126 74.4518 62.4741 69.6038 62.4741C64.7558 62.4741 60.8257 63.8126 60.8257 65.4637C60.8257 67.1148 64.7558 68.4533 69.6038 68.4533Z" fill="#FFF05D"/>
<path d="M79.9103 65.2001C79.9103 62.9618 75.3026 61.1489 69.6187 61.1489C64.1669 61.1489 59.7062 62.8153 59.3485 64.9248C59.3331 65.0167 59.3271 67.8753 59.3271 67.8753C59.3271 70.1104 63.9348 71.9233 69.6219 71.9233C75.3058 71.9233 79.9135 70.11 79.9135 67.8753V65.2033C79.9135 65.5883 79.9103 65.5823 79.9103 65.2001ZM76.336 66.6403C74.5932 67.3283 72.1442 67.7197 69.6187 67.7197C67.0933 67.7197 64.6443 67.3283 62.8983 66.6403C61.2165 65.9801 60.8529 65.3289 60.8529 65.2065L60.8561 65.1819C60.9753 64.4939 63.8461 62.6778 69.6192 62.6778C72.1446 62.6778 74.5936 63.0724 76.3364 63.7604C78.0182 64.4206 78.3818 65.075 78.3818 65.2006C78.3813 65.3284 78.0178 65.9801 76.336 66.6403Z" fill="#FFF05D"/>
<path d="M69.6213 72.6062C64.3001 72.6062 58.644 70.9481 58.644 67.8757C58.6504 64.9602 58.6636 64.8797 58.6741 64.8142C59.1587 61.9588 64.5463 60.4663 69.6182 60.4663C74.8961 60.4663 80.5026 62.099 80.5914 65.1272C80.5941 65.1523 80.5955 65.1778 80.5955 65.2032V67.8757C80.5959 70.9481 74.9416 72.6062 69.6213 72.6062ZM60.0274 65.0067C60.0183 65.2824 60.0119 66.8878 60.0096 67.877C60.0096 69.4642 64.1204 71.2411 69.6218 71.2411C75.1214 71.2411 79.2308 69.4642 79.2308 67.8757L79.2299 65.4658C79.2304 65.4517 79.2304 65.4189 79.2308 65.368C79.2276 65.3052 79.2276 65.2478 79.2276 65.2005C79.2276 63.6102 75.1182 61.8319 69.6186 61.8319C64.241 61.8314 60.3391 63.4668 60.0274 65.0067ZM69.6186 68.4021C67.0063 68.4021 64.4658 67.9917 62.6484 67.2755C60.8214 66.5579 60.1707 65.7361 60.1707 65.2064C60.1707 65.1778 60.1725 65.1491 60.1762 65.1204C60.1775 65.1104 60.1825 65.0758 60.1839 65.0658C60.4014 63.8108 63.8865 61.9952 69.6191 61.9952C72.2283 61.9952 74.7678 62.407 76.587 63.1255C78.4136 63.8427 79.0643 64.6677 79.0643 65.2005C79.0643 65.7329 78.4131 66.5579 76.5861 67.2759C74.7724 67.9912 72.2328 68.4021 69.6186 68.4021ZM61.6741 65.191C61.9026 65.3912 62.3562 65.6938 63.1475 66.005C64.8125 66.6607 67.171 67.037 69.6186 67.037C72.0676 67.037 74.4252 66.6612 76.0856 66.0055C76.866 65.6988 77.3169 65.4007 77.5485 65.2005C77.3169 64.9998 76.8655 64.7009 76.087 64.3951C74.4202 63.7371 72.0626 63.3599 69.6186 63.3599C64.904 63.3599 62.3581 64.6026 61.6741 65.191Z" fill="#8B7809"/>
<path opacity="0.4" d="M65.9521 83.5179L62.3296 82.5973V66.9004L65.9521 67.8209V83.5179Z" fill="white"/>
<path opacity="0.4" d="M74.6812 83.5179L76.8731 82.5973V66.9004L74.6812 67.8209V83.5179Z" fill="white"/>
<path d="M69.621 84.5295C64.3007 84.5295 58.646 82.8723 58.646 79.8017C58.6505 76.8876 58.6624 76.8093 58.6719 76.7465C58.7052 76.5586 58.7543 76.3866 58.8198 76.2178C58.9222 75.9575 59.172 75.7855 59.4519 75.7837C59.4532 75.7837 59.4546 75.7837 59.456 75.7837C59.7335 75.7837 59.9843 75.9525 60.0889 76.2101C60.6823 77.6757 64.4099 79.1919 69.6215 79.1919C74.8144 79.1919 78.5425 77.6803 79.1477 76.2192C79.2528 75.9639 79.5017 75.7973 79.7784 75.7973C80.0541 75.7973 80.303 75.9639 80.409 76.2187C80.5314 76.5131 80.5929 76.8184 80.5929 77.126C80.5929 77.2262 80.5924 77.2967 80.5933 77.3386C80.5961 77.3631 80.5974 77.3877 80.5974 77.4127V79.8017C80.5965 82.8723 74.9413 84.5295 69.621 84.5295ZM60.0152 78.1872C60.0129 78.726 60.0116 79.3334 60.0107 79.8026C60.0107 81.3888 64.1205 83.1644 69.6206 83.1644C75.1211 83.1644 79.2309 81.3888 79.2309 79.8017V78.1804C77.373 79.6301 73.7883 80.557 69.6206 80.557C65.4538 80.5566 61.8749 79.6328 60.0152 78.1872Z" fill="#8B7809"/>
<path d="M69.621 80.5568C64.1774 80.5568 59.7367 78.9801 58.823 76.7222C58.8157 76.704 58.8094 76.6858 58.8034 76.6672C58.6992 76.3905 58.646 76.107 58.646 75.824C58.6505 72.9145 58.6624 72.8362 58.6719 72.7734C58.7052 72.5855 58.7543 72.4135 58.8198 72.2447C58.9222 71.9844 59.172 71.8124 59.4523 71.8105C59.4532 71.8105 59.4546 71.8105 59.456 71.8105C59.734 71.8105 59.9847 71.9794 60.0889 72.2374C60.3155 72.7984 61.0272 73.3763 62.0929 73.8655C62.709 74.1481 63.4334 74.3965 64.247 74.6036C64.258 74.6058 64.2693 74.6081 64.2803 74.6108C65.8674 75.0054 67.7144 75.2142 69.621 75.2142C71.5108 75.2142 73.3505 75.0072 74.9413 74.6154C75.7622 74.4102 76.5053 74.1576 77.1464 73.8655C78.2089 73.3804 78.9206 72.8057 79.1509 72.2469C79.256 71.9912 79.5053 71.8242 79.782 71.8242C79.7838 71.8242 79.7856 71.8242 79.7879 71.8242C80.0664 71.8265 80.3153 71.998 80.4177 72.2574C80.5337 72.5527 80.5924 72.8526 80.5924 73.1484C80.5924 73.2503 80.592 73.3231 80.5929 73.3659C80.5956 73.39 80.597 73.415 80.597 73.44V75.8244C80.597 76.1393 80.5324 76.4501 80.4059 76.7472C79.4785 78.9878 75.0428 80.5568 69.621 80.5568ZM60.1026 76.244C60.7387 77.6992 64.45 79.1917 69.621 79.1917C74.8139 79.1917 78.542 77.6801 79.1472 76.2189C79.205 76.0829 79.2319 75.9564 79.2319 75.8244V74.2172C78.8173 74.5376 78.3109 74.8347 77.7134 75.1077C76.9963 75.4345 76.1745 75.7148 75.2708 75.9409C73.5726 76.3591 71.62 76.5802 69.6215 76.5802C67.618 76.5802 65.6686 76.3605 63.9822 75.9446C63.9695 75.9423 63.9563 75.9396 63.944 75.9359C63.0371 75.707 62.223 75.4281 61.5236 75.1073C60.9312 74.8356 60.4284 74.5394 60.0161 74.2209C60.0138 74.7569 60.0125 75.3594 60.0116 75.8258C60.0116 75.9491 60.038 76.0783 60.0898 76.2085C60.0939 76.2203 60.0985 76.2321 60.1026 76.244Z" fill="#8B7809"/>
<path d="M69.621 76.5804C67.6175 76.5804 65.6681 76.3606 63.9817 75.9447C63.969 75.9425 63.9558 75.9397 63.9435 75.9361C63.0366 75.7072 62.2225 75.4283 61.5232 75.1075C60.0989 74.454 59.1902 73.6609 58.8225 72.7495C58.7042 72.4469 58.6455 72.1474 58.6455 71.8521C58.6501 68.9381 58.6619 68.8598 58.6714 68.797C58.7069 68.5909 58.7615 68.4079 58.8366 68.2391C58.9481 67.9884 59.1825 67.8137 59.4737 67.8341C59.7485 67.8396 59.9929 68.0093 60.0943 68.2646C60.3178 68.8284 61.0285 69.4049 62.0942 69.8882C62.7154 70.1776 63.4511 70.4274 64.288 70.6344C65.8842 71.0321 67.7276 71.2424 69.6205 71.2424C71.5158 71.2424 73.3514 71.034 74.929 70.6395C75.7544 70.4374 76.4975 70.1867 77.1414 69.8932C78.2057 69.409 78.9169 68.8339 79.1445 68.2733C79.2487 68.0166 79.4976 67.8483 79.7747 67.8473C80.0295 67.8428 80.3012 68.0125 80.4076 68.2687C80.53 68.5631 80.5915 68.8684 80.5915 69.1761C80.5915 69.2762 80.591 69.3467 80.5919 69.3886C80.5947 69.4127 80.596 69.4377 80.596 69.4627V71.8517C80.596 72.1588 80.5346 72.4655 80.414 72.7631C80.04 73.6718 79.1317 74.4595 77.7125 75.107C76.9953 75.4337 76.1735 75.714 75.2698 75.9402C73.5716 76.3593 71.6191 76.5804 69.621 76.5804ZM64.2466 74.6046C64.2575 74.6069 64.2689 74.6092 64.2798 74.6119C65.8669 75.0064 67.7139 75.2153 69.6205 75.2153C71.5103 75.2153 73.35 75.0083 74.9408 74.6165C75.7617 74.4113 76.5048 74.1587 77.1459 73.8666C78.2084 73.3815 78.9201 72.8068 79.1504 72.248C79.2041 72.1151 79.2309 71.985 79.2309 71.8526V70.2377C78.8123 70.5639 78.3017 70.8656 77.707 71.1359C76.9862 71.4644 76.1617 71.7434 75.2566 71.965C73.5757 72.3854 71.6259 72.6079 69.6201 72.6079C67.6179 72.6079 65.6599 72.3836 63.959 71.96C63.0384 71.7325 62.2189 71.4526 61.5241 71.1291C60.9362 70.8629 60.4306 70.5644 60.0147 70.2413C60.0124 70.7796 60.0111 71.3853 60.0102 71.8535C60.0102 71.9786 60.0366 72.1074 60.0907 72.2457C60.3141 72.7995 61.0258 73.3779 62.0915 73.867C62.7081 74.1491 63.4329 74.3976 64.2466 74.6046Z" fill="#8B7809"/>
<path d="M69.6165 68.403C67.8159 68.403 66.0481 68.211 64.5051 67.8479C63.8321 67.6854 63.2101 67.4943 62.654 67.2786C62.3792 67.169 62.1457 67.0666 61.9369 66.9642C60.8293 66.415 60.1704 65.7579 60.1704 65.2041C60.1704 65.16 60.175 65.1158 60.1832 65.0726C60.4007 63.8112 63.8835 61.9961 69.6165 61.9961C72.2366 61.9961 74.7785 62.4084 76.5895 63.1273C78.4124 63.8435 79.0631 64.6676 79.0631 65.1996C79.0631 65.7561 78.4046 66.415 77.3012 66.9624C77.0741 67.0757 76.833 67.1817 76.5854 67.2782C76.0375 67.4938 75.4064 67.6868 74.712 67.852C73.1799 68.2124 71.4185 68.403 69.6165 68.403ZM61.6757 65.19C61.8272 65.3242 62.092 65.5172 62.5393 65.7392C62.7177 65.8261 62.9211 65.9149 63.1541 66.0082C63.6473 66.1993 64.2102 66.3722 64.8213 66.5201C66.2597 66.8586 67.9197 67.0379 69.6165 67.0379C71.3147 67.0379 72.9679 66.86 74.3976 66.5237C75.0283 66.3735 75.5975 66.1997 76.0881 66.0068C76.2996 65.9244 76.5021 65.8352 76.6928 65.7401C77.1305 65.5231 77.3931 65.3342 77.546 65.2005C77.3135 64.9998 76.8634 64.7017 76.0881 64.3969C74.429 63.7384 72.071 63.3612 69.6165 63.3612C64.906 63.3612 62.3601 64.6021 61.6757 65.19Z" fill="#8B7809"/>
<path opacity="0.4" d="M63.6254 56.6874L69.13 53.7119L66.9827 52.5288L61.6191 55.5894L63.6254 56.6874Z" fill="white"/>
<path opacity="0.4" d="M46.8342 47.2456L52.4339 44.3315L54.5662 45.5365L49.0152 48.5233L46.8342 47.2456Z" fill="white"/>
<g opacity="0.17">
<path opacity="0.17" d="M59.9534 95.5825C79.605 95.5825 95.5359 79.6517 95.5359 60C95.5359 40.3483 79.605 24.4175 59.9534 24.4175C40.3017 24.4175 24.3708 40.3483 24.3708 60C24.3708 79.6517 40.3017 95.5825 59.9534 95.5825Z" fill="url(#paint2_linear)"/>
</g>
</g>
<defs>
<filter id="filter0_f" x="0" y="0" width="120" height="120" filterUnits="userSpaceOnUse" color-interpolation-filters="sRGB">
<feFlood flood-opacity="0" result="BackgroundImageFix"/>
<feBlend mode="normal" in="SourceGraphic" in2="BackgroundImageFix" result="shape"/>
<feGaussianBlur stdDeviation="10" result="effect1_foregroundBlur"/>
</filter>
<radialGradient id="paint0_radial" cx="0" cy="0" r="1" gradientUnits="userSpaceOnUse" gradientTransform="translate(59.6462 20) scale(40.6462 1.588e+06)">
<stop stop-color="#FEEC7A"/>
<stop offset="0.744792" stop-color="#FADE75"/>
<stop offset="1" stop-color="#FEEC7A"/>
</radialGradient>
<radialGradient id="paint1_radial" cx="0" cy="0" r="1" gradientUnits="userSpaceOnUse" gradientTransform="translate(59.7188 28.7275) scale(31.0379 1.24151e+06)">
<stop stop-color="#FEEC7A"/>
<stop offset="1" stop-color="#DAC020"/>
</radialGradient>
<linearGradient id="paint2_linear" x1="34.7926" y1="85.1607" x2="85.1141" y2="34.8392" gradientUnits="userSpaceOnUse">
<stop stop-color="#3C2415"/>
<stop offset="0.3533" stop-color="#85756C"/>
<stop offset="0.8001" stop-color="#DCD8D5"/>
<stop offset="1" stop-color="white"/>
</linearGradient>
<clipPath id="clip0">
<rect width="81.9066" height="80" fill="white" transform="translate(19 20)"/>
</clipPath>
</defs>
</svg>
