<svg width="20" height="20" viewBox="0 0 20 20" fill="none" xmlns="http://www.w3.org/2000/svg">
<path fill-rule="evenodd" clip-rule="evenodd" d="M7.66027 0L8.34179 7.96438L5.51838 7.70571L5.58971 7.63438L5.42788 5.79616L3.7705 7.44737C3.47349 7.74321 3.24132 8.05589 3.07248 8.38323C2.90347 8.71074 2.80014 9.03825 2.7623 9.36576C2.7243 9.69327 2.75714 10.0084 2.86064 10.3119C2.96397 10.6153 3.13981 10.8911 3.38799 11.1395C3.63616 11.3875 3.91367 11.5617 4.22051 11.6617C4.52735 11.7617 4.84786 11.7962 5.1822 11.7652C5.51654 11.7342 5.84922 11.636 6.18006 11.4701C6.51091 11.3048 6.82125 11.0773 7.11092 10.7878L8.09411 9.80444L11.391 10.1066L8.9103 12.5872C8.31045 13.1872 7.67444 13.661 7.00225 14.0094C6.33023 14.3574 5.65955 14.5661 4.99086 14.6351C4.32218 14.7041 3.67416 14.6351 3.04664 14.4281C2.41929 14.2214 1.85394 13.8662 1.3506 13.3629C0.847417 12.8595 0.485407 12.2873 0.264567 11.6463C0.0440612 11.005 -0.0386077 10.3433 0.0165605 9.66043C0.071562 8.97791 0.264567 8.29189 0.595743 7.60237C0.926585 6.91302 1.39193 6.26834 1.99178 5.66849L4.60819 3.05208L5.1417 2.54107L5.13987 2.52024L7.66027 0Z" fill="url(#paint0_linear)"/>
<path fill-rule="evenodd" clip-rule="evenodd" d="M12.3401 19.3959L11.6585 11.4318L14.4818 11.6903L14.4105 11.7617L14.5721 13.5999L16.2297 11.9488C16.5267 11.653 16.7589 11.3405 16.9277 11.013C17.0965 10.6855 17.2 10.3576 17.2379 10.0303C17.2759 9.70293 17.243 9.38759 17.1395 9.08408C17.0362 8.78074 16.8604 8.5049 16.6122 8.25673C16.364 8.00855 16.0865 7.83438 15.7797 7.73454C15.4728 7.63454 15.1521 7.60004 14.8178 7.63104C14.4833 7.66204 14.1508 7.76038 13.8199 7.92588C13.4889 8.09139 13.1786 8.31889 12.8891 8.6084L11.9057 9.5916L8.60863 9.28959L11.0895 6.80885C11.6895 6.209 12.3254 5.73499 12.9976 5.38681C13.6698 5.03864 14.3405 4.83013 15.009 4.76113C15.6778 4.69213 16.3258 4.76113 16.9534 4.96797C17.5807 5.17481 18.1459 5.52982 18.6494 6.03317C19.1528 6.53651 19.5146 7.10869 19.7353 7.74988C19.9559 8.39106 20.0386 9.05291 19.9834 9.73543C19.9283 10.4181 19.7353 11.104 19.4043 11.7935C19.0734 12.483 18.6081 13.1275 18.0082 13.7275L15.392 16.3441L14.8585 16.8548L14.8605 16.8756L12.3401 19.3959Z" fill="url(#paint1_linear)"/>
<defs>
<linearGradient id="paint0_linear" x1="2.80398e-08" y1="12.5265" x2="20.0001" y2="12.5423" gradientUnits="userSpaceOnUse">
<stop stop-color="#96F196"/>
<stop offset="0.515625" stop-color="#5BC266"/>
<stop offset="1" stop-color="#3CA237"/>
</linearGradient>
<linearGradient id="paint1_linear" x1="2.80398e-08" y1="12.5265" x2="20.0001" y2="12.5423" gradientUnits="userSpaceOnUse">
<stop stop-color="#96F196"/>
<stop offset="0.515625" stop-color="#5BC266"/>
<stop offset="1" stop-color="#3CA237"/>
</linearGradient>
</defs>
</svg>
