<svg width="14" height="20" viewBox="0 0 14 20" fill="none" xmlns="http://www.w3.org/2000/svg">
<path d="M6.31873 19.7647C6.17451 19.7647 6.05192 19.7142 5.95096 19.6132C5.85 19.5267 5.79952 19.4041 5.79952 19.2455V17.7311C4.76109 17.6301 3.8669 17.3777 3.11692 16.9739C2.38137 16.5701 1.81889 16.0797 1.42948 15.5028C1.05449 14.9115 0.852576 14.2841 0.82373 13.6207C0.82373 13.5053 0.866998 13.4043 0.953534 13.3178C1.05449 13.2168 1.16987 13.1663 1.29968 13.1663H3.24672C3.4198 13.1663 3.5496 13.2024 3.63613 13.2745C3.73709 13.3322 3.83084 13.4332 3.91737 13.5774C4.07602 14.0678 4.40774 14.4788 4.91253 14.8105C5.43175 15.1422 6.13845 15.3081 7.03265 15.3081C8.02781 15.3081 8.77778 15.1422 9.28257 14.8105C9.80179 14.4644 10.0614 13.9956 10.0614 13.4043C10.0614 13.0149 9.93159 12.6904 9.67198 12.4308C9.41238 12.1712 9.01576 11.9476 8.48212 11.7601C7.96291 11.5582 7.1913 11.3203 6.1673 11.0462C4.46543 10.6424 3.21788 10.1088 2.42464 9.44532C1.6314 8.78188 1.23477 7.82999 1.23477 6.58965C1.23477 5.46468 1.63861 4.51279 2.44627 3.73397C3.26836 2.95515 4.38611 2.47921 5.79952 2.30614V0.813402C5.79952 0.654753 5.85 0.532161 5.95096 0.445626C6.05192 0.344668 6.17451 0.294189 6.31873 0.294189H7.66003C7.81868 0.294189 7.94127 0.344668 8.02781 0.445626C8.12877 0.532161 8.17925 0.654753 8.17925 0.813402V2.34941C9.11671 2.47921 9.91717 2.76045 10.5806 3.19313C11.2585 3.61138 11.7705 4.10175 12.1166 4.66423C12.4772 5.22671 12.6719 5.77477 12.7007 6.30841C12.7007 6.43821 12.6575 6.54638 12.5709 6.63291C12.4844 6.71945 12.3762 6.76272 12.2464 6.76272H10.1912C9.88832 6.76272 9.6792 6.63291 9.56382 6.37331C9.47728 5.91178 9.18883 5.52959 8.69846 5.22671C8.22251 4.90941 7.62398 4.75077 6.90285 4.75077C6.10961 4.75077 5.48222 4.9022 5.0207 5.20508C4.5736 5.50795 4.35005 5.94784 4.35005 6.52474C4.35005 6.91415 4.45822 7.23866 4.67456 7.49827C4.90532 7.75787 5.26589 7.98864 5.75625 8.19055C6.26104 8.39247 6.97496 8.60881 7.89801 8.83957C9.18162 9.12802 10.1984 9.45253 10.9484 9.81309C11.7128 10.1737 12.2753 10.628 12.6358 11.176C12.9964 11.7241 13.1767 12.4236 13.1767 13.2745C13.1767 14.5293 12.7224 15.5461 11.8137 16.3249C10.9195 17.1037 9.70804 17.5724 8.17925 17.7311V19.2455C8.17925 19.4041 8.12877 19.5267 8.02781 19.6132C7.94127 19.7142 7.81868 19.7647 7.66003 19.7647H6.31873Z" fill="#181A3C"/>
</svg>
