<svg width="48" height="48" viewBox="0 0 48 48" fill="none" xmlns="http://www.w3.org/2000/svg">
<g filter="url(#filter0_d)">
<path d="M24 2C11.8497 2 2 11.8497 2 24C2 36.1503 11.8497 46 24 46H46V24C46 11.8497 36.1503 2 24 2Z" fill="url(#paint0_linear)"/>
<path d="M3 24C3 12.402 12.402 3 24 3C35.598 3 45 12.402 45 24V45H24C12.402 45 3 35.598 3 24Z" stroke="black" stroke-opacity="0.2" stroke-width="2"/>
</g>
<path d="M34.6614 17.7161C33.7776 16.7839 32.7873 16.7795 32.3334 16.7252C29.082 16.4883 24.2041 16.4883 24.2041 16.4883H24.1938C24.1938 16.4883 19.3165 16.4883 16.0645 16.7252C15.6102 16.7795 14.6203 16.7839 13.736 17.7161C13.0398 18.4259 12.8131 20.0387 12.8131 20.0387C12.8131 20.0387 12.5806 21.9329 12.5806 23.8261V25.6016C12.5806 27.4957 12.8131 29.3889 12.8131 29.3889C12.8131 29.3889 13.0398 31.0012 13.736 31.7116C14.6203 32.6438 15.7817 32.615 16.2986 32.7122C18.1576 32.892 24.1987 32.9477 24.1987 32.9477C24.1987 32.9477 29.0815 32.9403 32.3329 32.7034C32.7868 32.6487 33.7771 32.6443 34.6609 31.7116C35.3572 31.0017 35.5843 29.3889 35.5843 29.3889C35.5843 29.3889 35.8169 27.4957 35.8169 25.6016V23.8261C35.8169 21.9329 35.5843 20.0387 35.5843 20.0387C35.5843 20.0387 35.3576 18.4264 34.6614 17.7161ZM21.7999 27.7532L21.7989 21.1781L28.077 24.4769L21.7999 27.7532Z" fill="url(#paint1_linear)"/>
<path d="M34.0809 17.2278C33.197 16.2956 32.2067 16.2912 31.7528 16.237C28.5014 16 23.6235 16 23.6235 16H23.6133C23.6133 16 18.7359 16 15.484 16.237C15.0296 16.2912 14.0398 16.2956 13.1555 17.2278C12.4593 17.9377 12.2326 19.5504 12.2326 19.5504C12.2326 19.5504 12 21.4446 12 23.3378V25.1133C12 27.0075 12.2326 28.9007 12.2326 28.9007C12.2326 28.9007 12.4593 30.5129 13.1555 31.2233C14.0398 32.1555 15.2011 32.1267 15.718 32.2239C17.577 32.4037 23.6182 32.4594 23.6182 32.4594C23.6182 32.4594 28.5009 32.4521 31.7523 32.2151C32.2062 32.1604 33.1966 32.156 34.0804 31.2233C34.7766 30.5134 35.0038 28.9007 35.0038 28.9007C35.0038 28.9007 35.2363 27.0075 35.2363 25.1133V23.3378C35.2363 21.4446 35.0038 19.5504 35.0038 19.5504C35.0038 19.5504 34.7776 17.9382 34.0809 17.2278ZM21.2198 27.2649L21.2188 20.6898L27.4969 23.9886L21.2198 27.2649Z" fill="white"/>
<defs>
<filter id="filter0_d" x="0" y="0" width="48" height="48" filterUnits="userSpaceOnUse" color-interpolation-filters="sRGB">
<feFlood flood-opacity="0" result="BackgroundImageFix"/>
<feColorMatrix in="SourceAlpha" type="matrix" values="0 0 0 0 0 0 0 0 0 0 0 0 0 0 0 0 0 0 127 0"/>
<feOffset/>
<feGaussianBlur stdDeviation="1"/>
<feColorMatrix type="matrix" values="0 0 0 0 0 0 0 0 0 0 0 0 0 0 0 0 0 0 0.7 0"/>
<feBlend mode="normal" in2="BackgroundImageFix" result="effect1_dropShadow"/>
<feBlend mode="normal" in="SourceGraphic" in2="effect1_dropShadow" result="shape"/>
</filter>
<linearGradient id="paint0_linear" x1="43.0489" y1="13.0024" x2="4.95155" y2="34.9982" gradientUnits="userSpaceOnUse">
<stop stop-color="#AF0021"/>
<stop offset="0.1925" stop-color="#B70024"/>
<stop offset="0.4941" stop-color="#CD002E"/>
<stop offset="0.8652" stop-color="#F2003D"/>
<stop offset="0.9856" stop-color="#FF0042"/>
</linearGradient>
<linearGradient id="paint1_linear" x1="12.581" y1="24.7179" x2="35.8174" y2="24.7179" gradientUnits="userSpaceOnUse">
<stop offset="0.0095" stop-color="#5F0000"/>
<stop offset="0.0421" stop-color="#650003"/>
<stop offset="0.5016" stop-color="#B70024"/>
<stop offset="0.8268" stop-color="#EB003A"/>
<stop offset="0.9856" stop-color="#FF0042"/>
</linearGradient>
</defs>
</svg>
