<svg width="48" height="48" viewBox="0 0 48 48" fill="none" xmlns="http://www.w3.org/2000/svg">
<g filter="url(#filter0_d)">
<path d="M24 2C11.8497 2 2 11.8497 2 24C2 36.1503 11.8497 46 24 46H46V24C46 11.8497 36.1503 2 24 2Z" fill="url(#paint0_linear)"/>
<path d="M3 24C3 12.402 12.402 3 24 3C35.598 3 45 12.402 45 24V45H24C12.402 45 3 35.598 3 24Z" stroke="black" stroke-opacity="0.2" stroke-width="2"/>
</g>
<path opacity="0.79" fill-rule="evenodd" clip-rule="evenodd" d="M21.4607 24.5288V34.2467C21.4607 34.3861 21.5741 34.4994 21.7137 34.4994H25.3267C25.4676 34.4994 25.5806 34.3861 25.5806 34.2467V24.3704H28.2001C28.3321 24.3704 28.4413 24.2694 28.4523 24.1388L28.7045 21.1637C28.7163 21.0159 28.6003 20.8887 28.4515 20.8887H25.5806V18.7787C25.5806 18.2821 25.9825 17.882 26.4775 17.882H28.4962C28.637 17.882 28.75 17.7687 28.75 17.6289V14.653C28.75 14.5131 28.637 14.3994 28.4962 14.3994H25.0847C23.0833 14.3994 21.4602 16.0205 21.4602 18.0201V20.8887H19.6541C19.5133 20.8887 19.4011 21.0024 19.4011 21.1418V24.1177C19.4011 24.2571 19.5133 24.3704 19.6541 24.3704H21.4607V24.5288Z" fill="url(#paint1_linear)"/>
<path fill-rule="evenodd" clip-rule="evenodd" d="M21.0595 24.129V33.8469C21.0595 33.9863 21.173 34.0996 21.3126 34.0996H24.9256C25.0664 34.0996 25.1795 33.9863 25.1795 33.8469V23.9706H27.799C27.931 23.9706 28.0402 23.8695 28.0512 23.739L28.3033 20.7639C28.3152 20.616 28.1992 20.4888 28.0503 20.4888H25.1795V18.3788C25.1795 17.8823 25.5813 17.4822 26.0764 17.4822H28.095C28.2359 17.4822 28.3489 17.3689 28.3489 17.2291V14.2535C28.3489 14.1137 28.2359 14 28.095 14H24.6836C22.6822 14 21.0595 15.6211 21.0595 17.6207V20.4888H19.253C19.1122 20.4888 19 20.6026 19 20.742V23.7179C19 23.8573 19.1122 23.9706 19.253 23.9706H21.0595V24.129Z" fill="white"/>
<defs>
<filter id="filter0_d" x="0" y="0" width="48" height="48" filterUnits="userSpaceOnUse" color-interpolation-filters="sRGB">
<feFlood flood-opacity="0" result="BackgroundImageFix"/>
<feColorMatrix in="SourceAlpha" type="matrix" values="0 0 0 0 0 0 0 0 0 0 0 0 0 0 0 0 0 0 127 0"/>
<feOffset/>
<feGaussianBlur stdDeviation="1"/>
<feColorMatrix type="matrix" values="0 0 0 0 0 0 0 0 0 0 0 0 0 0 0 0 0 0 0.7 0"/>
<feBlend mode="normal" in2="BackgroundImageFix" result="effect1_dropShadow"/>
<feBlend mode="normal" in="SourceGraphic" in2="effect1_dropShadow" result="shape"/>
</filter>
<linearGradient id="paint0_linear" x1="2" y1="24" x2="46" y2="24" gradientUnits="userSpaceOnUse">
<stop offset="0.0169" stop-color="#2928FF"/>
<stop offset="0.203" stop-color="#233CFF"/>
<stop offset="0.5842" stop-color="#1370FF"/>
<stop offset="0.9913" stop-color="#00ADFF"/>
</linearGradient>
<linearGradient id="paint1_linear" x1="19.4014" y1="24.45" x2="28.7504" y2="24.45" gradientUnits="userSpaceOnUse">
<stop offset="0.0169" stop-color="#2928FF"/>
<stop offset="0.203" stop-color="#233CFF"/>
<stop offset="0.5842" stop-color="#1370FF"/>
<stop offset="0.9913" stop-color="#00ADFF"/>
</linearGradient>
</defs>
</svg>
