<svg width="37" height="28" viewBox="0 0 37 28" fill="none" xmlns="http://www.w3.org/2000/svg">
<path d="M36.5647 1.67261C36.9615 2.63746 36.6597 3.7814 35.7728 4.41125L18.6702 16.5507L18.6393 16.5075L18.6084 16.5507L1.50576 4.41125C0.61887 3.7814 0.317063 2.63746 0.713812 1.67261C0.577188 1.97519 0.5 2.30941 0.5 2.66216V25.3378C0.5 26.6701 1.57987 27.7499 2.91214 27.7499H34.3672C35.6995 27.7499 36.7793 26.6701 36.7793 25.3378V2.66216C36.7786 2.30941 36.7014 1.97441 36.5647 1.67261Z" fill="white"/>
<path d="M2.91214 0.25C1.57987 0.25 0.5 1.32987 0.5 2.66214V25.3378C0.5 26.67 1.57987 27.7499 2.91214 27.7499H5.08422V0.25H2.91214Z" fill="#D72B27"/>
<path d="M2.91214 27.4125C1.76744 27.4125 0.836548 26.4816 0.836548 25.3369V2.66202C0.836548 1.51809 1.76744 0.586426 2.91214 0.586426H4.74768V27.4125H2.91214Z" fill="#D54B3D"/>
<path d="M36.3147 1.21557C35.5821 0.183558 34.1511 -0.0595858 33.1191 0.672932L18.6393 10.9513L4.15952 0.672932C3.12674 -0.0595858 1.69644 0.183558 0.963919 1.21557C0.231401 2.24758 0.473772 3.67865 1.50655 4.41117L18.6084 16.5506L18.6393 16.5074L18.6702 16.5506L35.7728 4.41117C36.8048 3.67865 37.048 2.24758 36.3147 1.21557Z" fill="#D72B27"/>
<path d="M34.3664 0.25H32.1943V27.7491H34.3664C35.6987 27.7491 36.7786 26.6693 36.7786 25.337V2.66214C36.7786 1.32987 35.6987 0.25 34.3664 0.25Z" fill="#D72B27"/>
<path d="M32.5317 27.4125V0.586426H34.3673C35.512 0.586426 36.4429 1.51732 36.4429 2.66202V25.3377C36.4429 26.4824 35.512 27.4133 34.3673 27.4133H32.5317V27.4125Z" fill="#D54B3D"/>
<path d="M18.6391 15.9245L18.5288 16.0812L1.70092 4.13632C0.82174 3.51264 0.614103 2.2892 1.23779 1.41003C1.60366 0.894408 2.2011 0.586426 2.83404 0.586426C3.24005 0.586426 3.6314 0.711471 3.96408 0.947668L18.6391 11.3635L33.3142 0.947668C33.6469 0.711471 34.0375 0.586426 34.4442 0.586426C35.078 0.586426 35.6746 0.894408 36.0405 1.41003C36.3431 1.83611 36.4612 2.35404 36.374 2.86889C36.2867 3.38373 36.0042 3.83374 35.5781 4.13632L18.7503 16.0812L18.6391 15.9245Z" fill="#D54B3D"/>
<path d="M4.15948 0.672992L18.6393 10.9514L33.119 0.672992C33.505 0.398974 33.9457 0.261578 34.3857 0.250772C34.3795 0.250772 34.3733 0.25 34.3664 0.25H2.91212C2.90517 0.25 2.899 0.250772 2.89282 0.250772C3.33202 0.26235 3.77354 0.399746 4.15948 0.672992Z" fill="white"/>
<path d="M18.6702 16.5506L5.08423 27.7491V6.95068L18.6702 16.5506Z" fill="#EFF0F0"/>
</svg>
