<svg width="315" height="316" viewBox="0 0 315 316" fill="none" xmlns="http://www.w3.org/2000/svg">
<g filter="url(#filter0_d)">
<path d="M287.162 91.2539C283.499 87.5903 283.499 81.6494 287.162 77.9858L278.735 69.558C268.067 80.2256 250.769 80.2256 240.1 69.5568C229.431 58.888 229.431 41.5898 240.099 30.9222L231.67 22.4932C228.006 26.1568 222.065 26.1568 218.402 22.4932C214.738 18.8296 214.738 12.8887 218.402 9.22509L211.999 2.82286L8.28271 206.54L14.6849 212.942C18.3485 209.278 24.2894 209.278 27.953 212.942C31.6166 216.605 31.6166 222.546 27.953 226.21L36.382 234.639C47.0497 223.971 64.3478 223.971 75.0166 234.64C85.6855 245.309 85.6855 262.607 75.0178 273.275L83.4456 281.702C87.1092 278.039 93.0501 278.039 96.7137 281.702C100.377 285.366 100.377 291.307 96.7137 294.971L103.117 301.374L306.834 97.6573L300.43 91.2539C296.767 94.9175 290.826 94.9175 287.162 91.2539Z" fill="url(#paint0_linear)"/>
<g opacity="0.2">
<path d="M143.518 236.785C143.257 237.045 142.932 237.189 142.541 237.215C142.15 237.19 141.825 237.047 141.565 236.787L116.235 211.457C115.949 211.171 115.806 210.846 115.806 210.481C115.781 210.09 115.911 209.752 116.198 209.465L127.265 198.398C130.654 195.009 134.081 193.117 137.545 192.723C141.01 192.329 144.225 193.615 147.191 196.581C150.157 199.547 151.417 202.736 150.971 206.149C150.499 209.535 148.568 212.923 145.179 216.312L140.721 220.77L149.151 229.2C149.411 229.46 149.554 229.786 149.58 230.176C149.58 230.541 149.436 230.867 149.149 231.154L143.518 236.785ZM139.402 210.926C140.471 209.858 141.032 208.75 141.086 207.604C141.139 206.406 140.619 205.26 139.526 204.168C138.512 203.153 137.405 202.62 136.207 202.569C135.035 202.492 133.863 203.04 132.69 204.214L128.31 208.593L135.023 215.306L139.402 210.926Z" fill="black"/>
<path d="M165.647 214.655C165.439 214.864 165.165 214.981 164.827 215.008C164.488 214.982 164.215 214.865 164.006 214.657C163.85 214.501 163.746 214.371 163.694 214.267L147.789 180.138C147.295 179.122 147.439 178.224 148.221 177.442L154.322 171.341C155.104 170.559 156.003 170.415 157.018 170.909L191.147 186.814C191.251 186.866 191.381 186.97 191.537 187.126C191.745 187.335 191.849 187.621 191.849 187.986C191.848 188.298 191.744 188.559 191.535 188.767L186.452 193.851C185.826 194.477 185.097 194.634 184.263 194.322L179.07 191.944L168.824 202.19L171.202 207.383C171.514 208.216 171.357 208.946 170.731 209.572L165.647 214.655ZM164.612 194.693L171.573 187.732L158.141 181.26L164.612 194.693Z" fill="black"/>
<path d="M205.651 175.432C203.123 177.961 200.607 179.747 198.106 180.792C195.605 181.836 193.299 182.216 191.19 181.931C189.081 181.647 187.297 180.828 185.84 179.475C185.606 179.241 185.489 178.968 185.49 178.655C185.516 178.317 185.646 178.03 185.881 177.796L191.082 172.594C191.395 172.282 191.695 172.086 191.981 172.008C192.294 171.903 192.698 171.864 193.192 171.889C194.156 172.175 195.198 172.174 196.318 171.886C197.438 171.546 198.598 170.777 199.797 169.578C201.205 168.17 202.079 166.88 202.418 165.707C202.732 164.509 202.512 163.533 201.757 162.778C201.211 162.232 200.573 161.985 199.844 162.038C199.088 162.064 198.15 162.378 197.03 162.978C195.883 163.552 194.333 164.478 192.378 165.756C188.599 168.287 185.29 169.696 182.451 169.986C179.612 170.275 177.008 169.236 174.641 166.868C173.027 165.255 172.04 163.38 171.677 161.245C171.315 159.058 171.603 156.792 172.543 154.447C173.509 152.076 175.087 149.795 177.277 147.605C179.571 145.311 181.956 143.733 184.431 142.871C186.906 141.957 189.186 141.655 191.269 141.966C193.352 142.224 194.992 142.9 196.189 143.992C196.423 144.226 196.553 144.513 196.579 144.851C196.579 145.164 196.461 145.437 196.227 145.672L190.752 151.147C190.178 151.72 189.501 151.929 188.72 151.774C188.017 151.384 187.157 151.333 186.141 151.62C185.099 151.882 184.096 152.495 183.131 153.459C182.036 154.554 181.384 155.597 181.175 156.587C180.966 157.577 181.238 158.449 181.993 159.203C182.747 159.958 183.737 160.165 184.961 159.826C186.16 159.46 188.049 158.429 190.629 156.734C193.522 154.725 196.024 153.342 198.134 152.585C200.245 151.776 202.172 151.565 203.917 151.954C205.661 152.291 207.34 153.266 208.953 154.879C210.723 156.649 211.749 158.692 212.034 161.01C212.318 163.327 211.912 165.737 210.815 168.238C209.693 170.714 207.972 173.112 205.651 175.432Z" fill="black"/>
<path d="M231.697 149.387C229.168 151.916 226.653 153.702 224.151 154.746C221.65 155.791 219.345 156.171 217.235 155.886C215.126 155.602 213.343 154.783 211.886 153.43C211.651 153.196 211.534 152.923 211.535 152.61C211.561 152.272 211.692 151.985 211.926 151.75L217.127 146.549C217.44 146.236 217.74 146.041 218.026 145.962C218.339 145.858 218.743 145.818 219.238 145.844C220.201 146.129 221.243 146.128 222.363 145.841C223.483 145.501 224.643 144.732 225.842 143.532C227.25 142.125 228.124 140.835 228.464 139.662C228.777 138.464 228.557 137.487 227.802 136.733C227.256 136.186 226.618 135.94 225.889 135.992C225.134 136.019 224.196 136.333 223.075 136.933C221.929 137.507 220.378 138.433 218.423 139.711C214.644 142.241 211.335 143.651 208.496 143.94C205.657 144.23 203.053 143.19 200.686 140.823C199.073 139.21 198.085 137.335 197.722 135.2C197.36 133.013 197.649 130.746 198.588 128.401C199.554 126.03 201.132 123.75 203.322 121.56C205.617 119.266 208.001 117.688 210.476 116.826C212.952 115.912 215.231 115.61 217.314 115.92C219.397 116.179 221.037 116.854 222.234 117.947C222.469 118.181 222.599 118.468 222.624 118.806C222.624 119.119 222.507 119.392 222.272 119.627L216.797 125.102C216.223 125.675 215.546 125.884 214.765 125.729C214.062 125.339 213.203 125.288 212.187 125.575C211.145 125.837 210.141 126.45 209.177 127.414C208.082 128.509 207.43 129.552 207.22 130.542C207.011 131.531 207.283 132.404 208.038 133.158C208.793 133.913 209.782 134.12 211.006 133.78C212.205 133.415 214.094 132.384 216.674 130.688C219.567 128.68 222.069 127.297 224.179 126.54C226.29 125.73 228.217 125.52 229.962 125.909C231.707 126.246 233.385 127.221 234.999 128.834C236.768 130.603 237.795 132.647 238.079 134.965C238.363 137.282 237.957 139.692 236.861 142.193C235.738 144.669 234.017 147.066 231.697 149.387Z" fill="black"/>
</g>
<g opacity="0.2">
<path d="M103.472 174.121C103.318 174.275 103.126 174.361 102.896 174.378C102.667 174.364 102.476 174.282 102.325 174.13L87.5263 159.331C87.3594 159.165 87.2767 158.974 87.2784 158.76C87.2955 158.53 87.3812 158.338 87.5354 158.184L90.7734 154.946C90.9431 154.776 91.135 154.691 91.3491 154.689C91.5633 154.687 91.7539 154.77 91.9208 154.937L103.714 166.73L110.653 159.791C110.822 159.622 111.022 159.544 111.251 159.557C111.481 159.54 111.679 159.615 111.846 159.782L114.259 162.195C114.426 162.362 114.501 162.56 114.484 162.79C114.482 163.004 114.397 163.196 114.227 163.366L103.472 174.121Z" fill="black"/>
<path d="M123.565 154.483C121.376 156.672 119.133 157.868 116.837 158.069C114.556 158.256 112.368 157.302 110.274 155.207L100.985 145.918C100.818 145.751 100.735 145.561 100.737 145.347C100.724 145.117 100.802 144.918 100.971 144.748L104.14 141.579C104.31 141.41 104.509 141.332 104.738 141.345C104.968 141.328 105.166 141.403 105.333 141.57L114.577 150.813C115.518 151.754 116.447 152.236 117.365 152.26C118.298 152.268 119.188 151.848 120.036 151C120.884 150.152 121.297 149.269 121.273 148.351C121.25 147.403 120.776 146.466 119.85 145.54L110.607 136.297C110.44 136.13 110.357 135.939 110.359 135.725C110.361 135.48 110.447 135.273 110.616 135.103L113.762 131.958C113.931 131.788 114.131 131.71 114.36 131.724C114.59 131.707 114.788 131.781 114.955 131.948L124.244 141.237C126.338 143.332 127.292 145.519 127.106 147.8C126.92 150.081 125.74 152.308 123.565 154.483Z" fill="black"/>
<path d="M140.231 137.817C138.026 140.022 135.768 141.233 133.456 141.45C131.16 141.652 128.964 140.782 126.868 138.841C126.443 138.446 125.767 137.786 124.841 136.86C123.9 135.919 123.225 135.229 122.816 134.788C120.92 132.738 120.072 130.549 120.274 128.223C120.477 125.865 121.665 123.599 123.839 121.425C125.211 120.053 126.657 119.047 128.177 118.408C129.712 117.753 131.213 117.527 132.679 117.73C134.146 117.933 135.465 118.588 136.634 119.695C136.77 119.832 136.83 119.999 136.813 120.198C136.812 120.382 136.742 120.543 136.603 120.682L133.319 123.966C133.103 124.182 132.903 124.306 132.719 124.338C132.535 124.34 132.291 124.265 131.987 124.114C131.027 123.587 130.179 123.402 129.444 123.561C128.709 123.689 127.979 124.116 127.254 124.84C125.511 126.583 125.566 128.441 127.416 130.415C127.811 130.84 128.433 131.478 129.283 132.328C130.133 133.178 130.786 133.815 131.241 134.24C133.215 136.09 135.073 136.145 136.816 134.402C137.525 133.693 137.952 132.963 138.095 132.212C138.254 131.446 138.07 130.599 137.542 129.67C137.376 129.38 137.309 129.144 137.341 128.96C137.358 128.761 137.474 128.553 137.69 128.337L140.974 125.053C141.113 124.914 141.274 124.844 141.458 124.843C141.657 124.826 141.824 124.886 141.961 125.022C143.069 126.192 143.724 127.51 143.926 128.977C144.129 130.444 143.903 131.945 143.248 133.479C142.609 134.999 141.603 136.445 140.231 137.817Z" fill="black"/>
<path d="M150.204 127.388C150.05 127.543 149.858 127.628 149.629 127.645C149.399 127.632 149.209 127.549 149.057 127.397L134.281 112.622C134.114 112.455 134.032 112.264 134.034 112.05C134.02 111.821 134.098 111.621 134.268 111.452L137.367 108.352C137.537 108.183 137.736 108.105 137.965 108.118C138.18 108.117 138.37 108.199 138.537 108.366L143.5 113.329L142.494 104.136C142.36 103.663 142.509 103.21 142.941 102.778L146.48 99.2397C146.603 99.1163 146.764 99.0615 146.963 99.0752C147.162 99.0584 147.322 99.1106 147.444 99.2321C147.565 99.3535 147.625 99.4754 147.624 99.5978L149.111 111.862L162.498 113.592C162.62 113.591 162.742 113.652 162.863 113.773C162.985 113.894 163.045 114.062 163.043 114.276C163.042 114.46 162.972 114.621 162.833 114.76L159.202 118.391C158.955 118.638 158.709 118.793 158.464 118.856C158.203 118.904 157.989 118.906 157.821 118.861L147.871 117.7L153.313 123.142C153.464 123.293 153.547 123.484 153.561 123.713C153.559 123.928 153.473 124.119 153.304 124.289L150.204 127.388Z" fill="black"/>
<path d="M169.817 107.776C169.663 107.93 169.471 108.016 169.241 108.033C169.012 108.019 168.821 107.937 168.67 107.785L163.82 102.935L148.688 98.4887C148.566 98.459 148.459 98.3987 148.368 98.3076C148.247 98.1862 148.187 98.0337 148.188 97.8501C148.19 97.6359 148.252 97.4672 148.376 97.3438L151.429 94.2908C151.645 94.0749 151.875 93.9507 152.12 93.9182C152.365 93.8857 152.579 93.8993 152.762 93.959L161.692 96.4585L159.192 87.5291C159.132 87.346 159.119 87.132 159.151 86.887C159.184 86.6419 159.308 86.4115 159.524 86.1956L162.577 83.1426C162.7 83.0193 162.861 82.9644 163.06 82.9782C163.259 82.9613 163.419 83.0136 163.541 83.135C163.632 83.2261 163.692 83.3327 163.722 83.4548L168.169 98.5872L173.018 103.437C173.185 103.603 173.26 103.802 173.243 104.031C173.241 104.246 173.155 104.437 172.986 104.607L169.817 107.776Z" fill="black"/>
</g>
<line opacity="0.2" x1="86.73" y1="220.347" x2="225.818" y2="81.2584" stroke="black" stroke-width="2" stroke-linecap="round" stroke-linejoin="round" stroke-dasharray="0 5"/>
</g>
<defs>
<filter id="filter0_d" x="0.282715" y="0.822754" width="314.551" height="314.551" filterUnits="userSpaceOnUse" color-interpolation-filters="sRGB">
<feFlood flood-opacity="0" result="BackgroundImageFix"/>
<feColorMatrix in="SourceAlpha" type="matrix" values="0 0 0 0 0 0 0 0 0 0 0 0 0 0 0 0 0 0 127 0"/>
<feOffset dy="6"/>
<feGaussianBlur stdDeviation="4"/>
<feColorMatrix type="matrix" values="0 0 0 0 0 0 0 0 0 0 0 0 0 0 0 0 0 0 0.3 0"/>
<feBlend mode="normal" in2="BackgroundImageFix" result="effect1_dropShadow"/>
<feBlend mode="normal" in="SourceGraphic" in2="effect1_dropShadow" result="shape"/>
</filter>
<linearGradient id="paint0_linear" x1="8.28271" y1="206.54" x2="210.472" y2="4.35074" gradientUnits="userSpaceOnUse">
<stop stop-color="#FEEC7A"/>
<stop offset="0.203125" stop-color="#F1B53D"/>
<stop offset="0.463542" stop-color="#F3B740"/>
<stop offset="0.744792" stop-color="#FADE75"/>
<stop offset="1" stop-color="#FEEC7A"/>
</linearGradient>
</defs>
</svg>
