<svg width="36" height="43" viewBox="0 0 36 43" fill="none" xmlns="http://www.w3.org/2000/svg">
<path d="M18.0014 13.0835C13.5597 13.0835 9.94629 16.6969 9.94629 21.1382C9.94629 25.5799 13.5597 29.1933 18.0014 29.1933C22.4427 29.1933 26.0561 25.5799 26.0561 21.1382C26.0561 16.6969 22.4427 13.0835 18.0014 13.0835ZM22.7836 19.6213L17.0131 25.3919C16.7709 25.6341 16.4532 25.7554 16.1358 25.7554C15.8184 25.7554 15.501 25.6344 15.2588 25.3919L13.0536 23.1867C12.5692 22.7026 12.5692 21.9172 13.0536 21.4327C13.5378 20.9483 14.3231 20.9483 14.8076 21.4327L16.1358 22.7609L21.0297 17.8674C21.5138 17.3829 22.2992 17.3829 22.7836 17.8674C23.2681 18.3515 23.2681 19.1369 22.7836 19.6213Z" fill="url(#paint0_linear)"/>
<path d="M35.958 11.4705L35.9568 11.4376C35.9384 11.0315 35.9261 10.6019 35.9187 10.1239C35.8842 7.7929 34.0312 5.86478 31.6999 5.73447C26.8393 5.46322 23.0791 3.87827 19.8663 0.746754L19.8389 0.720629C18.791 -0.24021 17.2102 -0.24021 16.162 0.720629L16.1346 0.746754C12.9218 3.87827 9.16166 5.46322 4.30102 5.73479C1.97004 5.86478 0.116743 7.7929 0.082232 10.1242C0.0751361 10.599 0.0625571 11.0286 0.0441725 11.4376L0.0422374 11.514C-0.052266 16.4704 -0.16967 22.639 1.89392 28.2379C3.02861 31.3168 4.74709 33.9933 7.0013 36.1933C9.5687 38.6987 12.9315 40.6878 16.9961 42.1051C17.1283 42.1512 17.2657 42.1886 17.4057 42.2167C17.6031 42.256 17.8018 42.2757 18.0005 42.2757C18.1991 42.2757 18.3982 42.256 18.5952 42.2167C18.7352 42.1886 18.8736 42.1509 19.0065 42.1044C23.0662 40.6846 26.4255 38.6946 28.9906 36.1894C31.2438 33.9887 32.9623 31.3117 34.098 28.2321C36.1693 22.6164 36.0522 16.4363 35.958 11.4705ZM17.9998 31.6742C12.1903 31.6742 7.46414 26.9481 7.46414 21.1385C7.46414 15.329 12.1903 10.6028 17.9998 10.6028C23.809 10.6028 28.5355 15.329 28.5355 21.1385C28.5355 26.9481 23.809 31.6742 17.9998 31.6742Z" fill="url(#paint1_linear)"/>
<defs>
<linearGradient id="paint0_linear" x1="10.2212" y1="21.1384" x2="25.9024" y2="21.1384" gradientUnits="userSpaceOnUse">
<stop stop-color="#54F3FF"/>
<stop offset="0.359375" stop-color="#39DEFF"/>
<stop offset="0.6875" stop-color="#00BAFF"/>
<stop offset="1" stop-color="#00C2FF"/>
</linearGradient>
<linearGradient id="paint1_linear" x1="0.614302" y1="21.1378" x2="35.6566" y2="21.1378" gradientUnits="userSpaceOnUse">
<stop stop-color="#54F3FF"/>
<stop offset="0.359375" stop-color="#39DEFF"/>
<stop offset="0.6875" stop-color="#00BAFF"/>
<stop offset="1" stop-color="#00C2FF"/>
</linearGradient>
</defs>
</svg>
