<svg width="21" height="20" viewBox="0 0 21 20" fill="none" xmlns="http://www.w3.org/2000/svg">
<path d="M10.0664 1.66663L17.5664 1.66663C18.0264 1.66663 18.3997 2.03998 18.3997 2.49995V17.5C18.3997 17.96 18.0264 18.3333 17.5664 18.3333H10.0664C9.60554 18.3333 9.23306 18.7058 9.23306 19.1666C9.23306 19.6274 9.60554 20 10.0664 20H17.5664C18.9447 20 20.0664 18.8783 20.0664 17.5V2.49999C20.0664 1.12166 18.9447 7.76171e-07 17.5664 6.55674e-07L10.0664 0C9.60555 -4.02869e-08 9.23306 0.372487 9.23306 0.833315C9.23306 1.29414 9.60555 1.66663 10.0664 1.66663Z" fill="white"/>
<path d="M0.248324 10.5931L5.31499 15.5931C5.64166 15.9164 6.16998 15.9123 6.49331 15.5848C6.81665 15.2573 6.81332 14.7298 6.48497 14.4064L2.86416 10.8331L12.5666 10.8331C13.0275 10.8331 13.4 10.4606 13.4 9.9998C13.4 9.53897 13.0275 9.16645 12.5666 9.16645L2.86416 9.16644L6.48497 5.59313C6.81328 5.26979 6.81579 4.74229 6.49332 4.4148C6.33 4.2498 6.11499 4.16647 5.89998 4.16647C5.6883 4.16647 5.47666 4.24647 5.31499 4.40649L0.248324 9.4065C0.0899862 9.56315 1.95242e-08 9.77652 0 9.99984C-1.95155e-08 10.2231 0.0891631 10.4356 0.248324 10.5931Z" fill="white"/>
</svg>
