<svg width="260" height="60" viewBox="0 0 260 60" fill="none" xmlns="http://www.w3.org/2000/svg">
<path fill-rule="evenodd" clip-rule="evenodd" d="M0 29.7872C0 13.3362 13.3362 0 29.7872 0C46.2383 0 59.5745 13.3362 59.5745 29.7872V59.5745H29.7872C13.3362 59.5745 0 46.2383 0 29.7872ZM41.2795 9.8827C43.0109 10.8829 44.6036 12.1065 46.0361 13.539C47.7375 15.2404 49.1441 17.1676 50.2319 19.2855L36.2549 18.5853L39.2034 13.4786C38.6068 13.1327 37.9898 12.8188 37.3542 12.5388C35.0372 11.5185 32.4774 10.9516 29.7875 10.9516C23.1555 10.9516 17.3131 14.397 13.9561 19.592L11.8311 15.4451C12.3624 14.7819 12.9321 14.1459 13.5391 13.539C15.6486 11.4291 18.1058 9.77257 20.8423 8.61524C23.6769 7.41652 26.6862 6.80852 29.7876 6.80852C32.8887 6.80852 35.8983 7.41652 38.7326 8.61524C38.9701 8.71575 39.2056 8.81997 39.439 8.92807C40.0683 9.2191 40.6822 9.53748 41.2795 9.8827ZM11.065 31.859C10.99 31.1786 10.9517 30.4874 10.9517 29.7875H16.8525L10.4707 17.3334C9.75471 18.4424 9.13461 19.6142 8.6153 20.8423C7.41665 23.6768 6.80865 26.686 6.80865 29.7875C6.80865 30.4829 6.83936 31.1737 6.90015 31.859C7.11107 34.2296 7.68562 36.5338 8.61537 38.7324C9.7727 41.4689 11.4292 43.9262 13.5391 46.036C15.6486 48.1455 18.1058 49.8021 20.8423 50.9597C22.6145 51.7093 24.4551 52.2275 26.344 52.511L28.8706 48.6009C19.6008 48.1545 12.0665 40.9752 11.065 31.859ZM51.1901 21.4081L46.536 21.1747C47.8697 23.7572 48.6231 26.686 48.6231 29.7875C48.6231 36.0039 45.5962 41.5266 40.9387 44.9588C40.3829 45.3686 39.8035 45.7488 39.2035 46.0961L36.2549 40.9894L28.6627 52.7392C29.0363 52.7571 29.4112 52.7661 29.7876 52.7661C32.8887 52.7661 35.8983 52.1584 38.7325 50.9597C39.6112 50.5879 40.4609 50.1649 41.2794 49.6919C41.8784 49.346 42.4613 48.9731 43.0261 48.5739C44.0939 47.8199 45.0994 46.9726 46.036 46.0359C48.1455 43.9261 49.8021 41.4688 50.9597 38.7324C52.1585 35.8981 52.7661 32.8885 52.7661 29.7874C52.7662 26.8915 52.2366 24.0762 51.1901 21.4081Z" fill="white"/>
<path d="M85.9574 60.0001C81.1234 60.0001 77.3277 58.8256 74.5702 56.4767C71.8468 54.1278 70.4851 50.6043 70.4851 45.9065V25.0724C70.4851 24.698 70.6043 24.3916 70.8426 24.1533C71.0809 23.8809 71.3872 23.7448 71.7617 23.7448H78.7574C79.1319 23.7448 79.4383 23.8809 79.6766 24.1533C79.9489 24.3916 80.0851 24.698 80.0851 25.0724V45.8043C80.0851 47.915 80.5787 49.498 81.566 50.5533C82.5872 51.6086 84.034 52.1363 85.9064 52.1363C87.7787 52.1363 89.2085 51.6086 90.1957 50.5533C91.217 49.4639 91.7277 47.8809 91.7277 45.8043V25.0724C91.7277 24.698 91.8468 24.3916 92.0851 24.1533C92.3574 23.8809 92.6809 23.7448 93.0553 23.7448H100C100.374 23.7448 100.681 23.8809 100.919 24.1533C101.191 24.3916 101.328 24.698 101.328 25.0724V45.9065C101.328 50.6043 99.966 54.1278 97.2426 56.4767C94.5192 58.8256 90.7574 60.0001 85.9574 60.0001Z" fill="url(#paint0_linear)"/>
<path d="M122.751 60.0001C117.883 60.0001 114.053 58.8256 111.262 56.4767C108.504 54.1278 107.04 50.6895 106.87 46.1618C106.836 45.2426 106.819 43.7448 106.819 41.6682C106.819 39.5575 106.836 38.0256 106.87 37.0724C107.04 32.6469 108.521 29.2426 111.313 26.8597C114.138 24.4426 117.951 23.2341 122.751 23.2341C125.781 23.2341 128.487 23.7277 130.87 24.715C133.287 25.7022 135.193 27.132 136.589 29.0043C137.985 30.8767 138.717 33.0895 138.785 35.6426C138.785 35.949 138.666 36.2043 138.428 36.4086C138.223 36.6129 137.968 36.715 137.662 36.715H130.411C129.934 36.715 129.576 36.6299 129.338 36.4597C129.134 36.2554 128.947 35.898 128.776 35.3873C128.3 33.7192 127.568 32.5618 126.581 31.915C125.628 31.2341 124.351 30.8937 122.751 30.8937C118.904 30.8937 116.913 33.0384 116.776 37.3277C116.742 38.2469 116.725 39.6597 116.725 41.566C116.725 43.4724 116.742 44.9192 116.776 45.9065C116.913 50.1958 118.904 52.3405 122.751 52.3405C124.317 52.3405 125.593 52.0001 126.581 51.3192C127.602 50.6384 128.334 49.4809 128.776 47.8469C128.913 47.3363 129.1 46.9958 129.338 46.8256C129.576 46.6214 129.934 46.5192 130.411 46.5192H137.662C137.968 46.5192 138.223 46.6214 138.428 46.8256C138.666 47.0299 138.785 47.2852 138.785 47.5916C138.717 50.1448 137.985 52.3575 136.589 54.2299C135.193 56.1022 133.287 57.532 130.87 58.5192C128.487 59.5065 125.781 60.0001 122.751 60.0001Z" fill="url(#paint1_linear)"/>
<path d="M157.515 60.0001C154.213 60.0001 151.404 59.5235 149.089 58.5703C146.774 57.6171 145.021 56.3575 143.83 54.7916C142.638 53.2256 142.009 51.5235 141.94 49.6852C141.94 49.3788 142.043 49.1235 142.247 48.9192C142.485 48.715 142.757 48.6129 143.064 48.6129H149.855C150.264 48.6129 150.587 48.6809 150.826 48.8171C151.098 48.9533 151.387 49.1916 151.694 49.532C152.136 50.349 152.817 51.0299 153.736 51.5746C154.689 52.0852 155.949 52.3405 157.515 52.3405C159.353 52.3405 160.766 52.0682 161.753 51.5235C162.74 50.9448 163.234 50.1618 163.234 49.1746C163.234 48.4597 162.979 47.8809 162.468 47.4384C161.957 46.9618 161.14 46.5533 160.017 46.2129C158.894 45.8384 157.277 45.4299 155.166 44.9873C151.047 44.1703 147.966 42.9277 145.923 41.2597C143.881 39.5916 142.86 37.2086 142.86 34.1107C142.86 32.0001 143.438 30.1277 144.596 28.4937C145.787 26.8256 147.455 25.532 149.6 24.6129C151.779 23.6937 154.298 23.2341 157.157 23.2341C160.153 23.2341 162.74 23.7618 164.919 24.8171C167.132 25.8384 168.817 27.132 169.974 28.698C171.166 30.2299 171.796 31.7448 171.864 33.2426C171.864 33.549 171.762 33.8214 171.557 34.0597C171.353 34.2639 171.098 34.366 170.791 34.366H163.643C162.894 34.366 162.315 34.0597 161.906 33.4469C161.702 32.732 161.174 32.1363 160.323 31.6597C159.472 31.149 158.417 30.8937 157.157 30.8937C155.728 30.8937 154.621 31.149 153.838 31.6597C153.055 32.1703 152.664 32.9192 152.664 33.9065C152.664 34.8937 153.174 35.6767 154.196 36.2554C155.217 36.8001 157.123 37.3618 159.915 37.9405C163.115 38.5192 165.651 39.2512 167.523 40.1363C169.43 40.9873 170.826 42.1107 171.711 43.5065C172.63 44.8682 173.089 46.6043 173.089 48.715C173.089 51.0299 172.426 53.0384 171.098 54.7405C169.77 56.4426 167.932 57.7533 165.583 58.6724C163.234 59.5575 160.545 60.0001 157.515 60.0001Z" fill="white"/>
<path d="M179.269 59.4895C178.928 59.4895 178.622 59.3703 178.35 59.132C178.111 58.8597 177.992 58.5533 177.992 58.2129V25.0724C177.992 24.698 178.111 24.3916 178.35 24.1533C178.588 23.8809 178.894 23.7448 179.269 23.7448H193.72C198.145 23.7448 201.618 24.749 204.137 26.7575C206.656 28.766 207.916 31.7107 207.916 35.5916C207.916 39.4724 206.656 42.3831 204.137 44.3235C201.618 46.2299 198.145 47.1831 193.72 47.1831H187.899V58.2129C187.899 58.5533 187.78 58.8597 187.541 59.132C187.303 59.3703 186.997 59.4895 186.622 59.4895H179.269ZM193.465 39.8809C194.86 39.8809 195.95 39.5235 196.733 38.8086C197.55 38.0597 197.958 36.9703 197.958 35.5405C197.958 34.2129 197.584 33.1405 196.835 32.3235C196.12 31.5065 194.997 31.098 193.465 31.098H187.745V39.8809H193.465Z" fill="white"/>
<path d="M213.926 59.4895C213.586 59.4895 213.28 59.3703 213.007 59.132C212.769 58.8597 212.65 58.5533 212.65 58.2129V25.0214C212.65 24.6469 212.769 24.3405 213.007 24.1022C213.28 23.8639 213.586 23.7448 213.926 23.7448H221.229C221.603 23.7448 221.909 23.8639 222.148 24.1022C222.386 24.3405 222.505 24.6469 222.505 25.0214V58.2129C222.505 58.5533 222.386 58.8597 222.148 59.132C221.909 59.3703 221.603 59.4895 221.229 59.4895H213.926Z" fill="white"/>
<path d="M230.732 59.4895C230.391 59.4895 230.085 59.3703 229.813 59.132C229.574 58.8597 229.455 58.5533 229.455 58.2129V25.0724C229.455 24.698 229.574 24.3916 229.813 24.1533C230.051 23.8809 230.357 23.7448 230.732 23.7448H236.502C237.285 23.7448 237.864 24.0682 238.238 24.715L250.289 43.7618V25.0724C250.289 24.698 250.408 24.3916 250.647 24.1533C250.885 23.8809 251.191 23.7448 251.566 23.7448H258.051C258.425 23.7448 258.732 23.8809 258.97 24.1533C259.208 24.3916 259.327 24.698 259.327 25.0724V58.1618C259.327 58.5363 259.208 58.8597 258.97 59.132C258.732 59.3703 258.425 59.4895 258.051 59.4895H252.281C251.498 59.4895 250.919 59.166 250.544 58.5192L238.544 40.2384V58.2129C238.544 58.5873 238.408 58.8937 238.136 59.132C237.898 59.3703 237.591 59.4895 237.217 59.4895H230.732Z" fill="white"/>
<defs>
<linearGradient id="paint0_linear" x1="58.7793" y1="56.8368" x2="143.012" y2="16.8439" gradientUnits="userSpaceOnUse">
<stop stop-color="#FEEC7A"/>
<stop offset="0.203125" stop-color="#F1B53D"/>
<stop offset="0.390625" stop-color="#F3B740"/>
<stop offset="0.744792" stop-color="#FADE75"/>
<stop offset="1" stop-color="#FEEC7A"/>
</linearGradient>
<linearGradient id="paint1_linear" x1="58.7793" y1="56.8368" x2="143.012" y2="16.8439" gradientUnits="userSpaceOnUse">
<stop stop-color="#FEEC7A"/>
<stop offset="0.203125" stop-color="#F1B53D"/>
<stop offset="0.390625" stop-color="#F3B740"/>
<stop offset="0.744792" stop-color="#FADE75"/>
<stop offset="1" stop-color="#FEEC7A"/>
</linearGradient>
</defs>
</svg>
