<svg width="300" height="128" viewBox="0 0 300 128" fill="none" xmlns="http://www.w3.org/2000/svg">
<g filter="url(#filter0_d)">
<path fill-rule="evenodd" clip-rule="evenodd" d="M30 5C18.9543 5 10 13.9543 10 25V39C21.0457 39 30 47.9543 30 59C30 70.0457 21.0457 79 10 79V93C10 104.046 18.9543 113 30 113H270C281.046 113 290 104.046 290 93V79C278.954 79 270 70.0457 270 59C270 47.9543 278.954 39 290 39V25C290 13.9543 281.046 5 270 5H30Z" fill="url(#paint0_linear)"/>
</g>
<defs>
<filter id="filter0_d" x="0" y="0" width="300" height="128" filterUnits="userSpaceOnUse" color-interpolation-filters="sRGB">
<feFlood flood-opacity="0" result="BackgroundImageFix"/>
<feColorMatrix in="SourceAlpha" type="matrix" values="0 0 0 0 0 0 0 0 0 0 0 0 0 0 0 0 0 0 127 0"/>
<feOffset dy="5"/>
<feGaussianBlur stdDeviation="5"/>
<feColorMatrix type="matrix" values="0 0 0 0 0 0 0 0 0 0 0 0 0 0 0 0 0 0 0.25 0"/>
<feBlend mode="normal" in2="BackgroundImageFix" result="effect1_dropShadow"/>
<feBlend mode="normal" in="SourceGraphic" in2="effect1_dropShadow" result="shape"/>
</filter>
<linearGradient id="paint0_linear" x1="10" y1="5" x2="287.9" y2="5" gradientUnits="userSpaceOnUse">
<stop stop-color="#C880FD"/>
<stop offset="0.369792" stop-color="#B26FEF"/>
<stop offset="0.682292" stop-color="#9960C9"/>
<stop offset="1" stop-color="#6841C0"/>
</linearGradient>
</defs>
</svg>
