<svg width="20" height="20" viewBox="0 0 20 20" fill="none" xmlns="http://www.w3.org/2000/svg">
<path d="M18.1666 3.7683H16.752C16.9386 3.473 17.0617 3.14152 17.0968 2.79095C17.209 1.67057 16.6189 0.666224 15.6144 0.22095C14.691 -0.188341 13.6534 -0.021026 12.9062 0.656659L11.12 2.27553C10.7721 1.89505 10.272 1.65592 9.717 1.65592C9.16101 1.65592 8.66013 1.89581 8.31218 2.27746L6.52364 0.656469C5.77524 -0.0212157 4.73803 -0.187885 3.8151 0.221178C2.81083 0.66649 2.22068 1.67117 2.33318 2.79152C2.36837 3.14182 2.49142 3.47315 2.67798 3.7683H1.26742C0.56742 3.7683 0 4.33576 0 5.03573V6.93688C0 7.28684 0.283729 7.57061 0.633731 7.57061H18.8003C19.1503 7.57061 19.434 7.28688 19.434 6.93688V5.03573C19.434 4.33576 18.8666 3.7683 18.1666 3.7683ZM7.81585 3.55707V3.7683H4.83459C4.04691 3.7683 3.42699 3.03399 3.62372 2.21389C3.71038 1.85272 3.97107 1.54485 4.30824 1.389C4.77124 1.175 5.28411 1.2437 5.67298 1.59568L7.81638 3.5384C7.81627 3.54466 7.81585 3.55081 7.81585 3.55707ZM15.8392 2.62268C15.792 3.28135 15.1971 3.76838 14.5367 3.76838H11.6182V3.55715C11.6182 3.54967 11.6177 3.54227 11.6176 3.53479C12.1032 3.09464 13.1565 2.13994 13.7278 1.6221C14.0525 1.32782 14.5068 1.19045 14.9268 1.31571C15.5294 1.49547 15.8833 2.00797 15.8392 2.62268Z" fill="#1A1B1E"/>
<path d="M1.26743 8.83803V18.1326C1.26743 18.8326 1.83485 19.4 2.53485 19.4H8.44955V8.83803H1.26743Z" fill="#1A1B1E"/>
<path d="M10.9844 8.83803V19.4H16.8991C17.5991 19.4 18.1666 18.8326 18.1666 18.1326V8.83803H10.9844Z" fill="#1A1B1E"/>
</svg>
