<svg width="100" height="25" viewBox="0 0 100 25" fill="none" xmlns="http://www.w3.org/2000/svg">
<path d="M97.4994 14.9961H67.5002C66.1197 14.9961 65 13.8765 65 12.4959C65 11.1162 66.1197 9.99658 67.5002 9.99658H97.4994C98.8791 9.99658 99.9987 11.1162 99.9987 12.4959C99.9987 13.8765 98.8791 14.9961 97.4994 14.9961Z" fill="url(#paint0_linear)"/>
<path d="M97.4994 14.9961H67.5002C66.1197 14.9961 65 13.8765 65 12.4959C65 11.1162 66.1197 9.99658 67.5002 9.99658H97.4994C98.8791 9.99658 99.9987 11.1162 99.9987 12.4959C99.9987 13.8765 98.8791 14.9961 97.4994 14.9961Z" fill="white"/>
<path d="M87.499 24.9957C86.859 24.9957 86.2191 24.7504 85.7293 24.2652C84.7543 23.2901 84.7543 21.7054 85.7293 20.7304L93.9633 12.4955L85.7339 4.26601C84.7589 3.291 84.7589 1.70627 85.7339 0.731257C86.7089 -0.243752 88.2936 -0.243752 89.2686 0.731257L99.2687 10.7304C100.244 11.7054 100.244 13.291 99.2687 14.266L89.2686 24.2652C88.7788 24.7504 88.1389 24.9957 87.499 24.9957Z" fill="url(#paint1_linear)"/>
<path d="M87.499 24.9957C86.859 24.9957 86.2191 24.7504 85.7293 24.2652C84.7543 23.2901 84.7543 21.7054 85.7293 20.7304L93.9633 12.4955L85.7339 4.26601C84.7589 3.291 84.7589 1.70627 85.7339 0.731257C86.7089 -0.243752 88.2936 -0.243752 89.2686 0.731257L99.2687 10.7304C100.244 11.7054 100.244 13.291 99.2687 14.266L89.2686 24.2652C88.7788 24.7504 88.1389 24.9957 87.499 24.9957Z" fill="white"/>
<path d="M32.5004 14.9961H2.50127C1.12161 14.9961 0.00195312 13.8765 0.00195312 12.4959C0.00195312 11.1162 1.12161 9.99658 2.50127 9.99658H32.5004C33.881 9.99658 35.0007 11.1162 35.0007 12.4959C35.0007 13.8765 33.881 14.9961 32.5004 14.9961Z" fill="url(#paint2_linear)"/>
<path d="M32.5004 14.9961H2.50127C1.12161 14.9961 0.00195312 13.8765 0.00195312 12.4959C0.00195312 11.1162 1.12161 9.99658 2.50127 9.99658H32.5004C33.881 9.99658 35.0007 11.1162 35.0007 12.4959C35.0007 13.8765 33.881 14.9961 32.5004 14.9961Z" fill="white"/>
<path d="M12.501 24.9957C11.861 24.9957 11.2211 24.7504 10.7313 24.2652L0.731257 14.266C-0.243752 13.291 -0.243752 11.7054 0.731257 10.7304L10.7313 0.731257C11.7063 -0.243752 13.291 -0.243752 14.266 0.731257C15.241 1.70627 15.241 3.291 14.266 4.26601L6.03568 12.4955L14.266 20.7258C15.241 21.7008 15.241 23.2856 14.266 24.2606C13.7808 24.7504 13.1409 24.9957 12.501 24.9957Z" fill="url(#paint3_linear)"/>
<path d="M12.501 24.9957C11.861 24.9957 11.2211 24.7504 10.7313 24.2652L0.731257 14.266C-0.243752 13.291 -0.243752 11.7054 0.731257 10.7304L10.7313 0.731257C11.7063 -0.243752 13.291 -0.243752 14.266 0.731257C15.241 1.70627 15.241 3.291 14.266 4.26601L6.03568 12.4955L14.266 20.7258C15.241 21.7008 15.241 23.2856 14.266 24.2606C13.7808 24.7504 13.1409 24.9957 12.501 24.9957Z" fill="white"/>
<defs>
<linearGradient id="paint0_linear" x1="65" y1="9.99658" x2="99.7362" y2="9.99658" gradientUnits="userSpaceOnUse">
<stop stop-color="#FEEC7A"/>
<stop offset="0.203125" stop-color="#F1B53D"/>
<stop offset="0.463542" stop-color="#F3B740"/>
<stop offset="0.744792" stop-color="#FADE75"/>
<stop offset="1" stop-color="#FEEC7A"/>
</linearGradient>
<linearGradient id="paint1_linear" x1="84.998" y1="0" x2="99.8874" y2="0" gradientUnits="userSpaceOnUse">
<stop stop-color="#FEEC7A"/>
<stop offset="0.203125" stop-color="#F1B53D"/>
<stop offset="0.463542" stop-color="#F3B740"/>
<stop offset="0.744792" stop-color="#FADE75"/>
<stop offset="1" stop-color="#FEEC7A"/>
</linearGradient>
<linearGradient id="paint2_linear" x1="0.00195312" y1="9.99658" x2="34.7382" y2="9.99658" gradientUnits="userSpaceOnUse">
<stop stop-color="#FEEC7A"/>
<stop offset="0.203125" stop-color="#F1B53D"/>
<stop offset="0.463542" stop-color="#F3B740"/>
<stop offset="0.744792" stop-color="#FADE75"/>
<stop offset="1" stop-color="#FEEC7A"/>
</linearGradient>
<linearGradient id="paint3_linear" x1="0" y1="0" x2="14.8848" y2="0" gradientUnits="userSpaceOnUse">
<stop stop-color="#FEEC7A"/>
<stop offset="0.203125" stop-color="#F1B53D"/>
<stop offset="0.463542" stop-color="#F3B740"/>
<stop offset="0.744792" stop-color="#FADE75"/>
<stop offset="1" stop-color="#FEEC7A"/>
</linearGradient>
</defs>
</svg>
