<svg width="1204" height="101" viewBox="0 0 1204 101" fill="none" xmlns="http://www.w3.org/2000/svg">
<g filter="url(#filter0_f)">
<path opacity="0.2" d="M726.617 57.3712L711.593 72.4C710.438 73.5556 708.884 74.2254 707.251 74.2694C702.531 74.3967 697.81 74.5135 693.091 74.6236C691.307 74.667 690.385 72.5076 691.647 71.2452L704.404 58.4838C706.893 55.9933 710.239 54.5549 713.759 54.4527C717.574 54.3438 721.389 54.2289 725.204 54.1089C726.936 54.0548 727.841 56.1458 726.617 57.3712Z" fill="white"/>
<path opacity="0.4" d="M751.921 56.4963L736.779 71.6441C735.635 72.7893 734.097 73.4575 732.48 73.5113C728.774 73.6351 725.069 73.7525 721.363 73.8646C719.633 73.9171 718.73 71.8242 719.954 70.5999L735.045 55.5033C736.187 54.3606 737.72 53.6949 739.334 53.6389C743.056 53.5098 746.776 53.3749 750.496 53.2334C752.233 53.1679 753.151 55.2662 751.921 56.4963Z" fill="white"/>
<path opacity="0.6" d="M777.399 55.449L762.138 70.7162C761.002 71.8519 759.48 72.5192 757.876 72.5828C754.137 72.7316 750.398 72.875 746.66 73.0136C744.923 73.0779 744.009 70.9767 745.237 69.7476L760.448 54.5311C761.581 53.3985 763.097 52.7341 764.697 52.6686C768.452 52.5144 772.206 52.3536 775.961 52.1871C777.705 52.1099 778.633 54.2149 777.399 55.449Z" fill="white"/>
<path opacity="0.8" d="M803.054 54.2248L787.668 69.6161C786.543 70.7413 785.039 71.407 783.449 71.4811C779.675 71.6564 775.9 71.8264 772.126 71.9904C770.384 72.066 769.458 69.9579 770.691 68.7247L786.021 53.3885C787.142 52.2674 788.64 51.6048 790.223 51.5289C794.017 51.3466 797.811 51.1588 801.605 50.9651C803.353 50.8762 804.292 52.9865 803.054 54.2248Z" fill="white"/>
<path d="M1191.36 15.6919L1157.47 49.5926C1155.95 51.1148 1153.99 52.117 1151.86 52.4541C1046.39 69.126 940.915 81.0028 835.447 88.0811C832.326 88.2916 829.268 87.1376 827.063 84.9288L817.016 74.8775C813.942 71.8055 809.705 70.1842 805.363 70.407C802.83 70.5381 800.296 70.6669 797.763 70.7935C796.016 70.8809 795.08 68.7677 796.317 67.5304L811.774 52.0669C812.885 50.9559 814.366 50.295 815.935 50.2092C940.461 43.4189 1064.99 30.6891 1189.51 12.0258C1191.57 11.7194 1192.84 14.2162 1191.36 15.6919Z" fill="white"/>
<path opacity="0.2" d="M477.384 57.3712L492.407 72.4C493.562 73.5556 495.116 74.2254 496.75 74.2694C501.469 74.3967 506.19 74.5135 510.909 74.6236C512.694 74.667 513.615 72.5076 512.354 71.2452L499.597 58.4838C497.107 55.9933 493.761 54.5549 490.242 54.4527C486.427 54.3438 482.612 54.2289 478.796 54.1089C477.065 54.0548 476.159 56.1458 477.384 57.3712Z" fill="white"/>
<path opacity="0.4" d="M452.079 56.4963L467.221 71.6441C468.366 72.7893 469.903 73.4575 471.521 73.5113C475.226 73.6351 478.931 73.7525 482.637 73.8646C484.367 73.9171 485.27 71.8242 484.046 70.5999L468.955 55.5033C467.813 54.3606 466.28 53.6949 464.666 53.6389C460.945 53.5098 457.224 53.3749 453.504 53.2334C451.766 53.1679 450.849 55.2662 452.079 56.4963Z" fill="white"/>
<path opacity="0.6" d="M426.6 55.449L441.862 70.7162C442.997 71.8519 444.519 72.5192 446.124 72.5828C449.863 72.7316 453.602 72.875 457.34 73.0136C459.076 73.0779 459.991 70.9767 458.763 69.7476L443.552 54.5311C442.42 53.3985 440.903 52.7341 439.303 52.6686C435.548 52.5144 431.793 52.3536 428.038 52.1871C426.295 52.1099 425.366 54.2149 426.6 55.449Z" fill="white"/>
<path opacity="0.8" d="M400.946 54.2248L416.332 69.6161C417.457 70.7413 418.962 71.407 420.551 71.4811C424.326 71.6564 428.1 71.8264 431.875 71.9904C433.617 72.066 434.542 69.9579 433.309 68.7247L417.979 53.3885C416.859 52.2674 415.361 51.6048 413.777 51.5289C409.983 51.3466 406.19 51.1588 402.395 50.9651C400.647 50.8762 399.708 52.9865 400.946 54.2248Z" fill="white"/>
<path d="M12.6423 15.6919L46.5272 49.5926C48.0486 51.1148 50.0126 52.117 52.137 52.4541C157.611 69.126 263.086 81.0028 368.553 88.0811C371.674 88.2916 374.732 87.1376 376.937 84.9288L386.985 74.8775C390.059 71.8055 394.296 70.1842 398.638 70.407C401.171 70.5381 403.704 70.6669 406.237 70.7935C407.984 70.8809 408.921 68.7677 407.684 67.5304L392.226 52.0669C391.115 50.9559 389.634 50.295 388.065 50.2092C263.54 43.4185 139.014 30.6891 14.4918 12.0258C12.4291 11.7194 11.164 14.2162 12.6423 15.6919Z" fill="white"/>
</g>
<path opacity="0.2" d="M726.617 57.3712L711.593 72.4C710.438 73.5556 708.884 74.2254 707.251 74.2694C702.531 74.3967 697.81 74.5135 693.091 74.6236C691.307 74.667 690.385 72.5076 691.647 71.2452L704.404 58.4838C706.893 55.9933 710.239 54.5549 713.759 54.4527C717.574 54.3438 721.389 54.2289 725.204 54.1089C726.936 54.0548 727.841 56.1458 726.617 57.3712Z" fill="white"/>
<path opacity="0.4" d="M751.921 56.4963L736.779 71.6441C735.635 72.7893 734.097 73.4575 732.48 73.5113C728.774 73.6351 725.069 73.7525 721.363 73.8646C719.633 73.9171 718.73 71.8242 719.954 70.5999L735.045 55.5033C736.187 54.3606 737.72 53.6949 739.334 53.6389C743.056 53.5098 746.776 53.3749 750.496 53.2334C752.233 53.1679 753.151 55.2662 751.921 56.4963Z" fill="white"/>
<path opacity="0.6" d="M777.399 55.449L762.138 70.7162C761.002 71.8519 759.48 72.5192 757.876 72.5828C754.137 72.7316 750.398 72.875 746.66 73.0136C744.923 73.0779 744.009 70.9767 745.237 69.7476L760.448 54.5311C761.581 53.3985 763.097 52.7341 764.697 52.6686C768.452 52.5144 772.206 52.3536 775.961 52.1871C777.705 52.1099 778.633 54.2149 777.399 55.449Z" fill="white"/>
<path opacity="0.8" d="M803.054 54.2248L787.668 69.6161C786.543 70.7413 785.039 71.407 783.449 71.4811C779.675 71.6564 775.9 71.8264 772.126 71.9904C770.384 72.066 769.458 69.9579 770.691 68.7247L786.021 53.3885C787.142 52.2674 788.64 51.6048 790.223 51.5289C794.017 51.3466 797.811 51.1588 801.605 50.9651C803.353 50.8762 804.292 52.9865 803.054 54.2248Z" fill="white"/>
<path d="M1191.36 15.6919L1157.47 49.5926C1155.95 51.1148 1153.99 52.117 1151.86 52.4541C1046.39 69.126 940.915 81.0028 835.447 88.0811C832.326 88.2916 829.268 87.1376 827.063 84.9288L817.016 74.8775C813.942 71.8055 809.705 70.1842 805.363 70.407C802.83 70.5381 800.296 70.6669 797.763 70.7935C796.016 70.8809 795.08 68.7677 796.317 67.5304L811.774 52.0669C812.885 50.9559 814.366 50.295 815.935 50.2092C940.461 43.4189 1064.99 30.6891 1189.51 12.0258C1191.57 11.7194 1192.84 14.2162 1191.36 15.6919Z" fill="white"/>
<path opacity="0.2" d="M477.384 57.3712L492.407 72.4C493.562 73.5556 495.116 74.2254 496.75 74.2694C501.469 74.3967 506.19 74.5135 510.909 74.6236C512.694 74.667 513.615 72.5076 512.354 71.2452L499.597 58.4838C497.107 55.9933 493.761 54.5549 490.242 54.4527C486.427 54.3438 482.612 54.2289 478.796 54.1089C477.065 54.0548 476.159 56.1458 477.384 57.3712Z" fill="white"/>
<path opacity="0.4" d="M452.079 56.4963L467.221 71.6441C468.366 72.7893 469.903 73.4575 471.521 73.5113C475.226 73.6351 478.931 73.7525 482.637 73.8646C484.367 73.9171 485.27 71.8242 484.046 70.5999L468.955 55.5033C467.813 54.3606 466.28 53.6949 464.666 53.6389C460.945 53.5098 457.224 53.3749 453.504 53.2334C451.766 53.1679 450.849 55.2662 452.079 56.4963Z" fill="white"/>
<path opacity="0.6" d="M426.6 55.449L441.862 70.7162C442.997 71.8519 444.519 72.5192 446.124 72.5828C449.863 72.7316 453.602 72.875 457.34 73.0136C459.076 73.0779 459.991 70.9767 458.763 69.7476L443.552 54.5311C442.42 53.3985 440.903 52.7341 439.303 52.6686C435.548 52.5144 431.793 52.3536 428.038 52.1871C426.295 52.1099 425.366 54.2149 426.6 55.449Z" fill="white"/>
<path opacity="0.8" d="M400.946 54.2248L416.332 69.6161C417.457 70.7413 418.962 71.407 420.551 71.4811C424.326 71.6564 428.1 71.8264 431.875 71.9904C433.617 72.066 434.542 69.9579 433.309 68.7247L417.979 53.3885C416.859 52.2674 415.361 51.6048 413.777 51.5289C409.983 51.3466 406.19 51.1588 402.395 50.9651C400.647 50.8762 399.708 52.9865 400.946 54.2248Z" fill="white"/>
<path d="M12.6423 15.6919L46.5272 49.5926C48.0486 51.1148 50.0126 52.117 52.137 52.4541C157.611 69.126 263.086 81.0028 368.553 88.0811C371.674 88.2916 374.732 87.1376 376.937 84.9288L386.985 74.8775C390.059 71.8055 394.296 70.1842 398.638 70.407C401.171 70.5381 403.704 70.6669 406.237 70.7935C407.984 70.8809 408.921 68.7677 407.684 67.5304L392.226 52.0669C391.115 50.9559 389.634 50.295 388.065 50.2092C263.54 43.4185 139.014 30.6891 14.4918 12.0258C12.4291 11.7194 11.164 14.2162 12.6423 15.6919Z" fill="white"/>
<defs>
<filter id="filter0_f" x="0" y="0" width="1204" height="100.106" filterUnits="userSpaceOnUse" color-interpolation-filters="sRGB">
<feFlood flood-opacity="0" result="BackgroundImageFix"/>
<feBlend mode="normal" in="SourceGraphic" in2="BackgroundImageFix" result="shape"/>
<feGaussianBlur stdDeviation="6" result="effect1_foregroundBlur"/>
</filter>
</defs>
</svg>
