<svg width="47" height="28" viewBox="0 0 47 28" fill="none" xmlns="http://www.w3.org/2000/svg">
<path fill-rule="evenodd" clip-rule="evenodd" d="M45.5229 2.11205C45.8425 1.04207 45.5229 0.25 43.9943 0.25H38.9223C37.63 0.25 37.0464 0.930899 36.7129 1.68128C36.7129 1.68128 34.1421 7.96223 30.4875 12.0476C29.3063 13.2288 28.7644 13.604 28.1252 13.604C27.8056 13.604 27.3192 13.2288 27.3192 12.1588V2.12595C27.3192 0.833628 26.9579 0.263896 25.888 0.263896H17.9256C17.1196 0.263896 16.6333 0.86142 16.6333 1.43115C16.6333 2.65399 18.4536 2.93191 18.6482 6.3642V13.8263C18.6482 15.466 18.3564 15.7578 17.7033 15.7578C15.9802 15.7578 11.8114 9.44909 9.32403 2.22322C8.83767 0.819732 8.35131 0.25 7.059 0.25H1.98699C0.541814 0.25 0.25 0.930899 0.25 1.68128C0.25 3.02918 1.97309 9.68532 8.25404 18.4814C12.4367 24.4984 18.3425 27.75 23.7063 27.75C26.9301 27.75 27.3192 27.0274 27.3192 25.7768V21.2328C27.3192 19.7876 27.6249 19.4958 28.6393 19.4958C29.3897 19.4958 30.682 19.871 33.6836 22.7753C37.1158 26.2076 37.6856 27.75 39.6171 27.75H44.6891C46.1343 27.75 46.8569 27.0274 46.44 25.5961C45.9814 24.1788 44.3417 22.1083 42.1601 19.6626C40.9789 18.273 39.2141 16.7583 38.6722 16.008C37.9218 15.0352 38.1302 14.6184 38.6722 13.7568C38.6722 13.7568 44.842 5.05798 45.4951 2.11205H45.5229Z" fill="url(#paint0_linear)"/>
<defs>
<linearGradient id="paint0_linear" x1="0.25" y1="0.25" x2="46.3125" y2="27.75" gradientUnits="userSpaceOnUse">
<stop stop-color="#78B1EA"/>
<stop offset="1" stop-color="#3C78BE"/>
</linearGradient>
</defs>
</svg>
